<?xml version="1.0" encoding="utf-8"?>
<!-- Generator: Adobe Illustrator 22.0.0, SVG Export Plug-In . SVG Version: 6.00 Build 0)  -->
<svg version="1.1" id="Layer_1" xmlns="http://www.w3.org/2000/svg" xmlns:xlink="http://www.w3.org/1999/xlink" x="0px" y="0px"
	 viewBox="0 0 282 288.9" style="enable-background:new 0 0 282 288.9;" xml:space="preserve">
<style type="text/css">
	.st0{fill:#FFFFFF;}
	.st1{fill:#3A3A3A;}
	.st2{fill:#6F6F75;}
	.st3{fill:#303034;}
	.st4{fill:#C4FF11;}
</style>
<g>
	<g id="XMLID_70_">
		<g>
			<polygon class="st0" points="110.5,147.2 110.5,210.1 56,241.6 56,178.6 			"/>
			<polygon class="st0" points="110.5,147.2 56,178.6 1.5,147.2 56,115.7 			"/>
			<polygon class="st0" points="56,178.6 56,241.6 1.5,210.1 1.5,147.2 			"/>
		</g>
		<g>
			<path class="st1" d="M56,180.1c-0.3,0-0.5-0.1-0.8-0.2L0.8,148.5c-0.5-0.3-0.8-0.8-0.8-1.3c0-0.5,0.3-1,0.8-1.3l54.5-31.5
				c0.5-0.3,1-0.3,1.5,0l54.5,31.5c0.5,0.3,0.8,0.8,0.8,1.3c0,0.5-0.3,1-0.8,1.3l-54.5,31.5C56.5,180.1,56.2,180.1,56,180.1z
				 M4.5,147.2L56,176.9l51.5-29.7L56,117.5L4.5,147.2z"/>
			<path class="st1" d="M56,243.1c-0.8,0-1.5-0.7-1.5-1.5v-62.9c0-0.8,0.7-1.5,1.5-1.5c0.8,0,1.5,0.7,1.5,1.5v62.9
				C57.5,242.4,56.8,243.1,56,243.1z"/>
			<path class="st1" d="M56,243.1c-0.3,0-0.5-0.1-0.8-0.2L0.8,211.4c-0.5-0.3-0.8-0.8-0.8-1.3v-62.9c0-0.8,0.7-1.5,1.5-1.5
				c0.8,0,1.5,0.7,1.5,1.5v62.1l53,30.6l53-30.6v-62.1c0-0.8,0.7-1.5,1.5-1.5c0.8,0,1.5,0.7,1.5,1.5v62.9c0,0.5-0.3,1-0.8,1.3
				l-54.5,31.5C56.5,243,56.2,243.1,56,243.1z"/>
		</g>
	</g>
	<g id="XMLID_74_">
		<g>
			<polygon class="st2" points="110.5,147.2 110.5,210.1 56,241.6 56,178.6 			"/>
			<polygon class="st3" points="94.3,175.1 94.3,200.8 72.1,213.6 72.1,188 			"/>
			<polygon class="st3" points="110.5,147.2 56,178.6 1.5,147.2 56,115.7 			"/>
			<polygon class="st3" points="56,178.6 56,241.6 1.5,210.1 1.5,147.2 			"/>
		</g>
		<g>
			<path class="st0" d="M56,180.1c-0.3,0-0.5-0.1-0.8-0.2L0.8,148.5c-0.5-0.3-0.8-0.8-0.8-1.3c0-0.5,0.3-1,0.8-1.3l54.5-31.5
				c0.5-0.3,1-0.3,1.5,0l54.5,31.5c0.5,0.3,0.8,0.8,0.8,1.3c0,0.5-0.3,1-0.8,1.3l-54.5,31.5C56.5,180.1,56.2,180.1,56,180.1z
				 M4.5,147.2L56,176.9l51.5-29.7L56,117.5L4.5,147.2z"/>
			<path class="st0" d="M56,243.1c-0.8,0-1.5-0.7-1.5-1.5v-62.9c0-0.8,0.7-1.5,1.5-1.5c0.8,0,1.5,0.7,1.5,1.5v62.9
				C57.5,242.4,56.8,243.1,56,243.1z"/>
			<path class="st0" d="M56,243.1c-0.3,0-0.5-0.1-0.8-0.2L0.8,211.4c-0.5-0.3-0.8-0.8-0.8-1.3v-62.9c0-0.8,0.7-1.5,1.5-1.5
				c0.8,0,1.5,0.7,1.5,1.5v62.1l53,30.6l53-30.6v-62.1c0-0.8,0.7-1.5,1.5-1.5c0.8,0,1.5,0.7,1.5,1.5v62.9c0,0.5-0.3,1-0.8,1.3
				l-54.5,31.5C56.5,243,56.2,243.1,56,243.1z"/>
		</g>
	</g>
	<g id="XMLID_75_">
		<g>
			<polygon class="st3" points="149.7,62.2 149.7,125.1 95.2,156.6 95.2,93.7 			"/>
			<polygon class="st3" points="149.7,62.2 95.2,93.7 40.7,62.2 95.2,30.7 			"/>
			<polygon class="st0" points="40.7,125.1 54.5,133.1 40.7,104.2 			"/>
			<polygon class="st2" points="95.2,93.7 40.7,62.2 40.7,104.2 54.5,133.1 95.2,156.6 			"/>
		</g>
		<g>
			<path class="st0" d="M95.2,95.2c-0.3,0-0.5-0.1-0.8-0.2L39.9,63.5c-0.5-0.3-0.8-0.8-0.8-1.3c0-0.5,0.3-1,0.8-1.3l54.5-31.5
				c0.5-0.3,1-0.3,1.5,0l54.5,31.5c0.5,0.3,0.8,0.8,0.8,1.3c0,0.5-0.3,1-0.8,1.3L95.9,95C95.7,95.1,95.4,95.2,95.2,95.2z M43.7,62.2
				l51.5,29.7l51.5-29.7L95.2,32.5L43.7,62.2z"/>
			<path class="st0" d="M95.2,158.1c-0.8,0-1.5-0.7-1.5-1.5V93.7c0-0.8,0.7-1.5,1.5-1.5c0.8,0,1.5,0.7,1.5,1.5v62.9
				C96.7,157.4,96,158.1,95.2,158.1z"/>
			<path class="st0" d="M95.2,158.1c-0.3,0-0.5-0.1-0.8-0.2l-54.5-31.5c-0.5-0.3-0.8-0.8-0.8-1.3V62.2c0-0.8,0.7-1.5,1.5-1.5
				c0.8,0,1.5,0.7,1.5,1.5v62.1l53,30.6l53-30.6V62.2c0-0.8,0.7-1.5,1.5-1.5c0.8,0,1.5,0.7,1.5,1.5v62.9c0,0.5-0.3,1-0.8,1.3
				l-54.5,31.5C95.7,158,95.4,158.1,95.2,158.1z"/>
		</g>
	</g>
	<g id="XMLID_69_">
		<g>
			<polygon class="st3" points="194.6,161.5 194.6,224.4 140.1,255.9 140.1,193 			"/>
			<polygon class="st0" points="194.6,161.5 140.1,193 85.6,161.5 140.1,130.1 			"/>
			<polygon class="st3" points="140.1,193 140.1,255.9 85.6,224.4 85.6,161.5 			"/>
		</g>
		<g>
			<path class="st0" d="M140.1,194.5c-0.3,0-0.5-0.1-0.8-0.2l-54.5-31.5c-0.5-0.3-0.8-0.8-0.8-1.3c0-0.5,0.3-1,0.8-1.3l54.5-31.5
				c0.5-0.3,1-0.3,1.5,0l54.5,31.5c0.5,0.3,0.8,0.8,0.8,1.3c0,0.5-0.3,1-0.8,1.3l-54.5,31.5C140.7,194.4,140.4,194.5,140.1,194.5z
				 M88.6,161.5l51.5,29.7l51.5-29.7l-51.5-29.7L88.6,161.5z"/>
			<path class="st0" d="M140.1,257.4c-0.8,0-1.5-0.7-1.5-1.5V193c0-0.8,0.7-1.5,1.5-1.5c0.8,0,1.5,0.7,1.5,1.5v62.9
				C141.6,256.7,141,257.4,140.1,257.4z"/>
			<path class="st0" d="M140.1,257.4c-0.3,0-0.5-0.1-0.8-0.2l-54.5-31.5c-0.5-0.3-0.8-0.8-0.8-1.3v-62.9c0-0.8,0.7-1.5,1.5-1.5
				c0.8,0,1.5,0.7,1.5,1.5v62.1l53,30.6l53-30.6v-62.1c0-0.8,0.7-1.5,1.5-1.5c0.8,0,1.5,0.7,1.5,1.5v62.9c0,0.5-0.3,1-0.8,1.3
				l-54.5,31.5C140.7,257.3,140.4,257.4,140.1,257.4z"/>
		</g>
	</g>
	<g id="XMLID_73_">
		<g>
			<polygon class="st0" points="195.1,98.9 195.1,161.8 140.6,193.3 140.6,130.3 			"/>
			<polygon class="st3" points="195.1,98.9 140.6,130.3 86.1,98.9 140.6,67.4 			"/>
			<polygon class="st2" points="140.6,130.3 140.6,193.3 86.1,161.8 86.1,98.9 			"/>
			<ellipse transform="matrix(0.866 -0.5 0.5 0.866 -58.4949 75.7068)" class="st3" cx="112" cy="147" rx="8.9" ry="15.4"/>
		</g>
		<g>
			<path class="st0" d="M140.6,131.8c-0.3,0-0.5-0.1-0.8-0.2l-54.5-31.5c-0.5-0.3-0.8-0.8-0.8-1.3c0-0.5,0.3-1,0.8-1.3l54.5-31.5
				c0.5-0.3,1-0.3,1.5,0l54.5,31.5c0.5,0.3,0.8,0.8,0.8,1.3c0,0.5-0.3,1-0.8,1.3l-54.5,31.5C141.1,131.8,140.9,131.8,140.6,131.8z
				 M89.1,98.9l51.5,29.7l51.5-29.7l-51.5-29.7L89.1,98.9z"/>
			<path class="st0" d="M140.6,194.8c-0.8,0-1.5-0.7-1.5-1.5v-62.9c0-0.8,0.7-1.5,1.5-1.5c0.8,0,1.5,0.7,1.5,1.5v62.9
				C142.1,194.1,141.4,194.8,140.6,194.8z"/>
			<path class="st0" d="M140.6,194.8c-0.3,0-0.5-0.1-0.8-0.2l-54.5-31.5c-0.5-0.3-0.8-0.8-0.8-1.3V98.9c0-0.8,0.7-1.5,1.5-1.5
				c0.8,0,1.5,0.7,1.5,1.5v62.1l53,30.6l53-30.6V98.9c0-0.8,0.7-1.5,1.5-1.5s1.5,0.7,1.5,1.5v62.9c0,0.5-0.3,1-0.8,1.3l-54.5,31.5
				C141.1,194.7,140.9,194.8,140.6,194.8z"/>
		</g>
	</g>
	<g id="XMLID_76_">
		<g>
			<polygon class="st2" points="213.5,33 213.5,95.9 159,127.3 159,64.4 			"/>
			<path class="st0" d="M183.3,90.9c-1.1,0-2.2-0.3-3.2-0.8c-2.2-1.2-3.4-3.7-3.4-6.8c0-5.2,3.5-11.4,8.1-14
				c2.7-1.5,5.4-1.7,7.6-0.5c2.2,1.2,3.4,3.7,3.4,6.8c0,5.2-3.5,11.4-8.1,14C186.2,90.5,184.7,90.9,183.3,90.9z M189.2,73.7
				c-0.3,0-0.8,0.1-1.5,0.5c-2.8,1.6-5.2,5.8-5.2,9c0,1.1,0.3,1.7,0.5,1.8c0.2,0.1,0.8,0.1,1.8-0.5c2.8-1.6,5.2-5.8,5.2-9
				c0-1.1-0.3-1.7-0.5-1.8C189.5,73.8,189.4,73.7,189.2,73.7z"/>
			<polygon class="st3" points="213.5,33 159,64.4 104.5,33 159,1.5 			"/>
			<polygon class="st3" points="159,64.4 159,127.3 104.5,95.9 104.5,33 			"/>
		</g>
		<g>
			<path class="st0" d="M159,65.9c-0.3,0-0.5-0.1-0.8-0.2l-54.5-31.5c-0.5-0.3-0.8-0.8-0.8-1.3c0-0.5,0.3-1,0.8-1.3l54.5-31.5
				c0.5-0.3,1-0.3,1.5,0l54.5,31.5c0.5,0.3,0.8,0.8,0.8,1.3c0,0.5-0.3,1-0.8,1.3l-54.5,31.5C159.5,65.9,159.3,65.9,159,65.9z
				 M107.5,33L159,62.7L210.5,33L159,3.2L107.5,33z"/>
			<path class="st0" d="M159,128.8c-0.8,0-1.5-0.7-1.5-1.5V64.4c0-0.8,0.7-1.5,1.5-1.5c0.8,0,1.5,0.7,1.5,1.5v62.9
				C160.5,128.2,159.9,128.8,159,128.8z"/>
			<path class="st0" d="M159,128.8c-0.3,0-0.5-0.1-0.8-0.2l-54.5-31.5c-0.5-0.3-0.8-0.8-0.8-1.3V33c0-0.8,0.7-1.5,1.5-1.5
				c0.8,0,1.5,0.7,1.5,1.5V95l53,30.6L212,95V33c0-0.8,0.7-1.5,1.5-1.5c0.8,0,1.5,0.7,1.5,1.5v62.9c0,0.5-0.3,1-0.8,1.3l-54.5,31.5
				C159.5,128.8,159.3,128.8,159,128.8z"/>
		</g>
	</g>
	<g id="XMLID_71_">
		<g>
			<polygon class="st0" points="249.2,193 249.2,256 194.7,287.4 194.7,224.5 			"/>
			<polygon class="st3" points="249.2,193 194.7,224.5 140.2,193 194.7,161.6 			"/>
			<polygon class="st3" points="194.7,224.5 194.7,287.4 140.2,256 140.2,193 			"/>
		</g>
		<g>
			<path class="st0" d="M194.7,226c-0.3,0-0.5-0.1-0.8-0.2l-54.5-31.5c-0.5-0.3-0.8-0.8-0.8-1.3c0-0.5,0.3-1,0.8-1.3l54.5-31.5
				c0.5-0.3,1-0.3,1.5,0l54.5,31.5c0.5,0.3,0.8,0.8,0.8,1.3c0,0.5-0.3,1-0.8,1.3l-54.5,31.5C195.2,225.9,195,226,194.7,226z
				 M143.2,193l51.5,29.7l51.5-29.7l-51.5-29.7L143.2,193z"/>
			<path class="st0" d="M194.7,288.9c-0.8,0-1.5-0.7-1.5-1.5v-62.9c0-0.8,0.7-1.5,1.5-1.5c0.8,0,1.5,0.7,1.5,1.5v62.9
				C196.2,288.2,195.6,288.9,194.7,288.9z"/>
			<path class="st0" d="M194.7,288.9c-0.3,0-0.5-0.1-0.8-0.2l-54.5-31.5c-0.5-0.3-0.8-0.8-0.8-1.3V193c0-0.8,0.7-1.5,1.5-1.5
				c0.8,0,1.5,0.7,1.5,1.5v62.1l53,30.6l53-30.6V193c0-0.8,0.7-1.5,1.5-1.5c0.8,0,1.5,0.7,1.5,1.5V256c0,0.5-0.3,1-0.8,1.3
				l-54.5,31.5C195.2,288.8,195,288.9,194.7,288.9z"/>
		</g>
	</g>
	<g id="XMLID_72_">
		<g>
			<polygon class="st4" points="280.5,148.2 280.5,211.1 226,242.6 226,179.6 			"/>
			<polygon class="st3" points="243.9,207.4 253.7,181 263.6,196 			"/>
			<polygon class="st3" points="280.5,148.2 226,179.6 171.5,148.2 226,116.7 			"/>
			<polygon class="st3" points="226,179.6 226,242.6 171.5,211.1 171.5,148.2 			"/>
		</g>
		<g>
			<path class="st0" d="M226,181.1c-0.3,0-0.5-0.1-0.8-0.2l-54.5-31.5c-0.5-0.3-0.8-0.8-0.8-1.3s0.3-1,0.8-1.3l54.5-31.5
				c0.5-0.3,1-0.3,1.5,0l54.5,31.5c0.5,0.3,0.8,0.8,0.8,1.3s-0.3,1-0.8,1.3l-54.5,31.5C226.5,181.1,226.3,181.1,226,181.1z
				 M174.5,148.2l51.5,29.7l51.5-29.7L226,118.5L174.5,148.2z"/>
			<path class="st0" d="M226,244.1c-0.8,0-1.5-0.7-1.5-1.5v-62.9c0-0.8,0.7-1.5,1.5-1.5c0.8,0,1.5,0.7,1.5,1.5v62.9
				C227.5,243.4,226.8,244.1,226,244.1z"/>
			<path class="st0" d="M226,244.1c-0.3,0-0.5-0.1-0.8-0.2l-54.5-31.5c-0.5-0.3-0.8-0.8-0.8-1.3v-62.9c0-0.8,0.7-1.5,1.5-1.5
				c0.8,0,1.5,0.7,1.5,1.5v62.1l53,30.6l53-30.6v-62.1c0-0.8,0.7-1.5,1.5-1.5c0.8,0,1.5,0.7,1.5,1.5v62.9c0,0.5-0.3,1-0.8,1.3
				l-54.5,31.5C226.5,244,226.3,244.1,226,244.1z"/>
		</g>
	</g>
</g>
</svg>
