<?xml version="1.0" encoding="utf-8"?>
<!-- Generator: Adobe Illustrator 22.0.0, SVG Export Plug-In . SVG Version: 6.00 Build 0)  -->
<svg version="1.1" id="Layer_1" xmlns="http://www.w3.org/2000/svg" xmlns:xlink="http://www.w3.org/1999/xlink" x="0px" y="0px"
	 viewBox="0 0 262.4 282.7" style="enable-background:new 0 0 262.4 282.7;" xml:space="preserve">
<style type="text/css">
	.st0{fill:#303034;}
	.st1{fill:#C4FF11;}
	.st2{fill:#6F6F75;}
	.st3{fill:#FFFFFF;}
</style>
<g>
	<path class="st0" d="M255.7,104.5c6.3,12.9,4.4,21.7-0.3,26.6c-0.6,0.7-1.3,1.3-2.1,1.8c-8.5,5.9-28.2,20.3-39.9,19
		c-5.9-0.6-13.8-2.6-20.1-5.5c-6.3-2.9-11.1-6.7-10.4-10.9c1-6.4,10-11.5,17.8-11.5l0,0c4.2,1.2,8.4,2.1,11.9,2.5
		c11.7,1.3,31.5-13.2,39.9-19C253.8,106.6,254.8,105.6,255.7,104.5L255.7,104.5z"/>
	<path class="st0" d="M255.4,131.1c3.6,9.9,1.7,17-2.3,21.1c-0.6,0.7-1.3,1.3-2.1,1.8c-8.3,5.7-27.5,19.8-38.9,18.5
		c-4.7-0.5-10.8-1.9-16.3-4c-7.7-2.9-14.2-7.2-13.4-12c0.7-4.5,5.4-8.3,10.8-10.1c6.3,2.9,14.2,4.9,20.1,5.5
		c11.7,1.3,31.5-13.2,39.9-19C254.1,132.4,254.8,131.8,255.4,131.1z"/>
	<path class="st0" d="M249.8,175.9c-7.8,5.4-25.8,18.7-36.6,17.6c-0.1,0-0.1,0-0.2,0c-10.8-1.2-29.3-7.3-28.1-15.1
		c0.7-4.5,5.6-8.2,11-9.8c5.5,2.1,11.6,3.5,16.3,4c11.4,1.3,30.6-12.8,38.9-18.5c0.7-0.5,1.4-1.1,2.1-1.8
		C258.2,164.3,255.1,172.2,249.8,175.9z"/>
	<path class="st0" d="M212.9,193.4c0.1,0,0.1,0,0.2,0c-29.1,16.3-55.3,16.6-86.2,36.8c0.4-2.9,0.6-6,0.6-9.3
		c0-30.7-19.4-66.9-43.4-80.7c-2.4-1.4-4.8-2.5-7.1-3.3l25.5-13.6c9.5-5.1,16.4-14,18.8-24.5l6.2-26.9c2-8.6,7-16.2,14-21.5l7.5-5.6
		c6.2-4.6,10.5-11.2,12.4-18.7l4.8-19.5c0.5-2.2,2.5-3.9,4.8-4c23.7-1,16.1,30.5,10.3,59.5c20.7-6.9,46.3-12.6,57.5,0.2
		c19,21.8,21.7,34.9,16.8,42c-0.8,1.2-1.9,2.2-3.1,3c-8.5,5.9-28.2,20.3-39.9,19c-3.5-0.4-7.7-1.2-11.9-2.5l0,0
		c-7.9-0.1-16.9,5.1-17.8,11.5c-0.7,4.2,4.1,8,10.4,10.9c-5.4,1.8-10.1,5.6-10.8,10.1c-0.7,4.8,5.7,9.1,13.4,12
		c-5.5,1.6-10.3,5.3-11,9.8C183.6,186.1,202.1,192.2,212.9,193.4z"/>
	<path class="st1" d="M127.6,220.9c0,3.3-0.2,6.4-0.6,9.3c-1.7,11.5-6.7,19.7-13.8,23.8l-7.9,4.5c3.7-6.5,5.8-15.1,5.8-25.6
		c0-33.2-21-72.3-47-87.3c-4.7-2.7-9.3-4.5-13.5-5.3l4.5-2.6c6-3.5,13.6-3.9,21.9-0.8c2.3,0.8,4.7,2,7.1,3.3
		C108.2,154.1,127.6,190.2,127.6,220.9z"/>
	<path class="st0" d="M50.6,140.3c4.3,0.8,8.8,2.6,13.5,5.3c25.9,15,47,54.1,47,87.3c0,10.5-2.1,19.2-5.8,25.6
		c-2.6,4.5-5.9,7.9-9.8,10.1L81,276.9c9.6-5.5,15.6-18,15.6-35.8c0-33.2-21-72.3-47-87.3c-11.9-6.9-22.8-7.5-31.1-2.9l14.3-8.1
		C37.9,140,43.9,139,50.6,140.3z"/>
	<path class="st2" d="M96.6,241.1c0,17.8-6,30.3-15.6,35.8c-8.3,4.8-19.3,4.2-31.4-2.7c-25.9-15-47-54-47-87.3
		c0-17.9,6.1-30.5,15.9-35.9c8.3-4.6,19.2-4,31.1,2.9C75.6,168.8,96.6,207.9,96.6,241.1z"/>
	<path class="st3" d="M69,282.7c-6.5,0-13.5-2.1-20.7-6.2C21.7,261.1,0,220.9,0,186.9c0-18.2,6.3-32.2,17.2-38.3l0,0
		c9.4-5.3,21.4-4.2,33.8,2.9c26.6,15.4,48.3,55.6,48.3,89.6c0,18-6.2,31.9-16.9,38.1C78.3,281.6,73.8,282.7,69,282.7z M19.9,153.3
		c-9.2,5.1-14.5,17.4-14.5,33.6c0,32.3,20.5,70.4,45.6,84.9c10.7,6.2,20.9,7.2,28.7,2.7c9-5.2,14.2-17.4,14.2-33.4
		c0-32.3-20.5-70.4-45.6-84.9C37.7,150.1,27.6,149,19.9,153.3z"/>
	<path class="st3" d="M81,279.6c-0.9,0-1.8-0.5-2.3-1.4c-0.7-1.3-0.3-2.9,1-3.7l14.5-8.3c3.5-2,6.5-5.1,8.8-9.1
		c3.6-6.2,5.4-14.6,5.4-24.3c0-32.3-20.5-70.4-45.6-85c-4.4-2.5-8.6-4.2-12.7-5c-6-1.1-11.4-0.4-16,2.3l-14.5,8.2
		c-1.3,0.7-2.9,0.3-3.7-1c-0.7-1.3-0.3-2.9,1-3.7l14.5-8.3c5.7-3.3,12.5-4.2,19.7-2.9c4.7,0.9,9.5,2.8,14.4,5.6
		c26.6,15.4,48.3,55.6,48.3,89.6c0,10.6-2.1,19.9-6.2,27c-2.8,4.9-6.4,8.6-10.8,11.1l-14.5,8.3C82,279.5,81.5,279.6,81,279.6z"/>
	<path class="st3" d="M105.4,261.2c-0.9,0-1.8-0.5-2.3-1.4c-0.7-1.3-0.3-2.9,1-3.7l7.9-4.5c6.5-3.7,10.9-11.5,12.4-21.9
		c0.4-2.8,0.6-5.8,0.6-8.9c0-29.8-18.9-65-42.1-78.4c-2.2-1.3-4.5-2.3-6.7-3.2c-7.4-2.7-14.2-2.5-19.7,0.6l-4.5,2.6
		c-1,0.6-2.4,0.5-3.3-0.4c-1-1.1-1.1-2.7,0-3.8c0.2-0.2,0.4-0.3,0.6-0.4l4.5-2.6c6.9-4,15.3-4.3,24.2-1c2.5,0.9,5,2.1,7.5,3.5
		c24.7,14.3,44.8,51.5,44.8,83c0,3.4-0.2,6.6-0.7,9.7c-1.8,12-7.1,21.2-15.1,25.7l-7.9,4.5C106.3,261.1,105.8,261.2,105.4,261.2z"/>
	<path class="st3" d="M77.1,139.6c-1,0-1.9-0.5-2.4-1.4c-0.7-1.3-0.2-2.9,1.1-3.6l25.5-13.6c8.8-4.7,15.2-13,17.4-22.7l6.2-26.9
		c2.1-9.2,7.5-17.4,15.1-23.1l7.5-5.6c5.7-4.2,9.7-10.3,11.4-17.2L163.7,6c0.8-3.4,3.8-5.9,7.3-6c6.2-0.2,11,1.5,14.2,5.3
		c8.4,9.8,4.2,30.7-0.2,52.8l-0.9,4.7c-2.3,11.6-4.4,23.6-3.7,32.1c0.1,1.5-1,2.8-2.5,2.9c-1.5,0.1-2.8-1-2.9-2.5
		c-0.8-9.2,1.4-21.7,3.8-33.6l0.9-4.7c4-19.9,8.1-40.4,1.4-48.2c-2.1-2.5-5.4-3.6-9.9-3.4c-1.1,0-2,0.8-2.3,1.9l-4.8,19.5
		c-2,8.1-6.7,15.2-13.4,20.2l-7.5,5.6c-6.6,4.9-11.2,12-13,20L124,99.4c-2.6,11.3-9.9,20.8-20.1,26.3l-25.5,13.6
		C78,139.5,77.5,139.6,77.1,139.6z"/>
	<path class="st3" d="M200.7,126.7c-0.3,0-0.5,0-0.8-0.1c-6.6-2-21.9-7.6-20.5-16.9c0.6-4,3.6-7.4,8.3-9.6c6-2.8,13.5-2.9,18.9-0.4
		l1.3-1c4.4-3.5,8.3-6.5,13.9-9.7l-6.7-9.3c-0.9-1.2-0.6-2.9,0.6-3.8c1.2-0.9,2.9-0.6,3.8,0.6l8.5,11.7c0.5,0.6,0.6,1.4,0.4,2.2
		c-0.2,0.8-0.7,1.4-1.4,1.8c-6.8,3.5-10.8,6.7-15.8,10.7c-0.9,0.7-1.8,1.4-2.7,2.1c-0.9,0.7-2.1,0.8-3.1,0.2
		c-3.8-2.4-10.5-2.5-15.5-0.2c-1.8,0.8-4.8,2.6-5.2,5.5c-0.5,3.4,6.3,7.9,16.7,10.9c1.4,0.4,2.2,1.9,1.8,3.3
		C202.9,126,201.9,126.7,200.7,126.7z"/>
	<path class="st3" d="M214.1,129.3c-0.6,0-1.2,0-1.8-0.1c-3.7-0.4-8.2-1.3-12.4-2.6c-1.4-0.4-2.2-1.9-1.8-3.3
		c0.4-1.4,1.9-2.2,3.3-1.8c3.9,1.2,8,2,11.4,2.4c9.9,1.1,27.7-11.3,36.3-17.3l1.9-1.3c1-0.7,1.8-1.5,2.4-2.4
		c2.8-4.1,4.5-14.5-16.6-38.7c-8-9.2-25.9-9-54.6,0.6c-1.4,0.5-2.9-0.3-3.4-1.7c-0.5-1.4,0.3-2.9,1.7-3.4c31-10.3,50.8-10,60.4,1
		c17.9,20.6,23.6,35.8,17,45.3c-1,1.4-2.2,2.7-3.8,3.7l-1.9,1.3C242.9,117.5,226,129.3,214.1,129.3z"/>
	<path class="st3" d="M214.9,154.7c-0.6,0-1.2,0-1.8-0.1c-6.7-0.7-14.9-3-20.9-5.7c-10.9-5-12.5-10.2-12-13.8
		c1.2-8.1,11.7-13.7,20.3-13.7h0.2c1.5,0,2.7,1.2,2.7,2.7c0,1.5-1.3,2.7-2.8,2.7c-6.9,0-14.3,4.5-15,9.2c-0.4,2.4,2.9,5.4,8.9,8.1
		c5.5,2.5,13.1,4.6,19.3,5.3c9.9,1.1,27.7-11.3,36.3-17.3l1.8-1.3c0.6-0.4,1.2-0.9,1.7-1.4c4.8-4.9,4.8-13.5-0.1-23.6
		c-0.7-1.3-0.1-2.9,1.2-3.6c1.3-0.7,2.9-0.1,3.6,1.2c8.5,17.4,2.3,26.5-0.8,29.7c-0.7,0.7-1.6,1.5-2.5,2.1l-1.8,1.3
		C243.7,142.9,226.8,154.7,214.9,154.7z"/>
	<path class="st3" d="M214.3,196.2c-0.5,0-1,0-1.4-0.1c-0.1,0-0.2,0-0.3,0c-8.9-1-23.6-5.3-28.6-11.9c-1.9-2.5-2.1-4.9-1.8-6.4
		c0.9-6,7.2-10.3,13-12c1.4-0.4,2.9,0.4,3.3,1.9c0.4,1.4-0.4,2.9-1.9,3.3c-4.8,1.4-8.6,4.6-9.1,7.6c0,0.3-0.2,1,0.8,2.3
		c3.5,4.6,15.7,8.7,24.9,9.8c0.1,0,0.2,0,0.3,0c9.1,0.8,25.3-10.5,33.1-15.9l1.7-1.2c5.4-3.7,6.3-11.2,2.4-20.4
		c-0.6-1.4,0.1-2.9,1.4-3.5c1.4-0.6,2.9,0.1,3.5,1.4c7.2,17.2-1.5,25-4.3,26.9l-1.7,1.2C241,185.3,225.4,196.2,214.3,196.2z"/>
	<path class="st3" d="M213.6,175.3c-0.6,0-1.2,0-1.8-0.1c-5.3-0.6-11.6-2.1-16.9-4.1c-10.8-4.1-16-9.2-15.1-14.9
		c0.8-5.2,5.7-10,12.6-12.2c1.4-0.5,2.9,0.3,3.4,1.7c0.5,1.4-0.3,2.9-1.7,3.4c-4.8,1.6-8.5,4.9-9,7.9c-0.4,2.7,4.2,6.2,11.7,9.1
		c4.9,1.9,10.8,3.3,15.6,3.8c9.7,1.1,27-11,35.3-16.8l1.8-1.2c0.6-0.4,1.2-0.9,1.7-1.4c3.9-4,4.5-10.5,1.7-18.3
		c-0.5-1.4,0.2-2.9,1.6-3.4c1.4-0.5,2.9,0.2,3.4,1.6c4.7,13.3,0.2,20.6-2.9,23.9c-0.7,0.7-1.5,1.5-2.5,2.1l-1.8,1.2
		C241.7,163.7,225.3,175.3,213.6,175.3z"/>
	<path class="st3" d="M127,232.9c-0.9,0-1.7-0.4-2.3-1.2c-0.8-1.2-0.5-2.9,0.8-3.7c17.3-11.3,33.2-16.5,48.7-21.6
		c12.8-4.2,24.8-8.1,37.7-15.3c1.3-0.7,2.9-0.3,3.7,1c0.7,1.3,0.3,2.9-1,3.7c-13.3,7.4-26.2,11.6-38.7,15.7
		c-15.1,4.9-30.7,10-47.4,20.9C128,232.8,127.5,232.9,127,232.9z"/>
</g>
</svg>
