<?xml version="1.0" encoding="utf-8"?>
<!-- Generator: Adobe Illustrator 22.0.0, SVG Export Plug-In . SVG Version: 6.00 Build 0)  -->
<svg version="1.1" id="Layer_1" xmlns="http://www.w3.org/2000/svg" xmlns:xlink="http://www.w3.org/1999/xlink" x="0px" y="0px"
	 viewBox="0 0 328.8 437.2" style="enable-background:new 0 0 328.8 437.2;" xml:space="preserve">
<style type="text/css">
	.st0{fill:#C4FF11;}
	.st1{fill:#FFFFFF;}
	.st2{fill:#303034;}
	.st3{fill:#6F6F75;}
</style>
<g>
	<path class="st0" d="M327.3,262.5v20.6c0,7.7-3.9,15.1-10.5,19.1c-0.4,0.2-0.8,0.5-1.1,0.7c-14.1,8.2-35.5,9.1-47.8,2l-20.2-11.6
		c-5.4-3.1-8.1-7.2-8.3-11.5v-44.1c0.2,3.7,2.2,7.2,6,10c0.4,0.3,0.9,0.7,1.4,1c0.3,0.2,0.5,0.3,0.8,0.5l20.2,11.6
		c12.3,7.1,33.6,6.2,47.8-2c1-0.6,2-1.2,2.9-1.9c0.8-0.6,1.6-1.2,2.4-1.9c3.7-3.2,5.9-6.8,6.3-10.4V262.5z"/>
	<path class="st1" d="M321.4,232.7c3.4,2.8,5.9,6.8,5.9,12.1c-0.5,3.5-2.6,7.1-6.3,10.4l0.3-22.5H321.4z"/>
	<path class="st2" d="M277.4,67V48.2c27,10.4,49.4,29.7,48.1,44c-1.7,20-4,120.1-4,120.1l-0.7,42.9c-0.7,0.6-1.5,1.3-2.4,1.9
		c-0.9,0.6-1.9,1.3-2.9,1.9c-14.1,8.2-35.5,9.1-47.8,2c0,0-20.7-12-21-12.1v-26.8c0-2.6-0.1-5.2-0.2-7.8l19.9-11.5
		c3.6-2.1,6.8-6.3,8.8-11.1c-2.3-13.2-3.5-31.4,2-46.2c0.1-0.2,0.2-0.5,0.3-0.7c2-4.8,2.5-10.1,1.3-15.2c-0.5-2.1-1-4.3-1.6-6.6
		c-4.6-19.7-9.3-43.9-0.9-55C276.8,67.5,277.1,67.2,277.4,67z"/>
	<path class="st1" d="M277.4,145.4v-22.5l0,0c0.5,2.3,1.1,4.5,1.6,6.6c1.2,5.1,0.7,10.4-1.3,15.2C277.6,145,277.5,145.2,277.4,145.4
		z"/>
	<path class="st3" d="M277.4,122.9L277.4,122.9l0,22.5c-5.7,14.7-4.3,32.9-2,46.2c-2,4.8-5.2,9-8.8,11.1l-19.9,11.5l-130.8,75.5
		c0-0.9,0.1-1.7,0.1-2.6c0-26.4-13.4-49.3-15.6-60.9c-2.2-11.6-9.6-55.6-26.3-49.1c-9.3,3.6-2.3,33.2-2.3,50.2
		c0,9.8-5.5,21.5-10.2,29.6c-0.4,0.7-1,1.4-1.7,1.9V140.3c0-8,4.9-17.2,10.8-20.7L266.6,6.6c2.7-1.6,5.2-1.7,7.1-0.6
		c2.3,1.3,3.7,4.4,3.7,8.8V67c-0.3,0.3-0.6,0.6-0.9,1C268.2,79,272.9,103.2,277.4,122.9z"/>
	<path class="st1" d="M265.4,1.2l8.2,4.8c-1.9-1.1-4.4-1-7.1,0.6L70.7,119.6c-6,3.5-10.8,12.7-10.8,20.7v118.4
		c-1.7,1.2-3.9,1.5-5.8,0.4c-1.5-0.8-2.5-2.1-2.5-4.2V135.6c0-8,4.9-17.2,10.8-20.7L258.3,1.8C261.1,0.2,263.5,0.1,265.4,1.2z"/>
	<path class="st1" d="M246.9,227.8v20.9c-0.5-0.3-1-0.6-1.4-1c-3.9-2.9-5.9-6.4-6-10C239.5,233.5,242.8,230,246.9,227.8L246.9,227.8
		z"/>
	<path class="st2" d="M40.5,182.6c3.6-3.8,7.3-7.8,11.2-11.8V255c0,2.1,1,3.4,2.5,4.2c1.9,1,4.1,0.7,5.8-0.4
		c0.7-0.5,1.2-1.1,1.7-1.9c4.7-8.2,10.2-19.9,10.2-29.6c0-17-7-46.6,2.3-50.2c16.7-6.5,24.1,37.5,26.3,49.1
		c2.2,11.6,15.6,34.4,15.6,60.9c0,0.9,0,1.8-0.1,2.6c-0.6,15.2-6.3,26.9-10.6,33.6c-3.2,4.9-4.9,10.7-4.9,16.5v43.4
		c-0.3,0.2-0.7,0.4-1.1,0.6c-14.1,8.3-35.5,9.1-47.8,2l-20.2-11.6c-0.6-0.4-1.2-0.7-1.7-1.1v-25.5c0-8.4-1.3-16.8-3.7-24.9
		c-6.5-21.2-15.3-61.2-18.9-71.4C-8.6,209.7,11.6,199,40,182.2L40.5,182.6z"/>
	<path class="st0" d="M110.9,387.5v20.7c0,7.7-3.9,15-10.5,19.1c-0.4,0.2-0.7,0.5-1.1,0.7c-14.1,8.2-35.5,9.1-47.8,2l-20.2-11.6
		c-5.3-3.1-8.1-7.2-8.3-11.5v-44.1c0.2,3.7,2.1,7.2,6,10c0.2,0.1,0.3,0.2,0.5,0.3c0.5,0.4,1.1,0.8,1.7,1.1l20.2,11.6
		c12.3,7.1,33.7,6.3,47.8-2c0.4-0.2,0.7-0.4,1.1-0.6c0.6-0.4,1.2-0.8,1.8-1.2c5.2-3.7,8.1-8,8.7-12.2V387.5z"/>
	<path class="st1" d="M100.3,354c9.1,4.2,10.5,10.8,10.5,15.7c-0.6,4.2-3.5,8.5-8.7,12.2c-0.6,0.4-1.2,0.8-1.8,1.2V354z"/>
	<path class="st1" d="M29.6,348.8v24.3c-0.2-0.1-0.3-0.2-0.5-0.3c-3.9-2.8-5.9-6.4-6-10C23.1,353.7,24.4,351.1,29.6,348.8z"/>
	<path class="st1" d="M59.9,260.3c-0.8,0-1.5-0.7-1.5-1.5V140.3c0-8.6,5.1-18.2,11.6-22L265.8,5.3c3.1-1.8,6.1-2,8.6-0.6
		c2.9,1.6,4.5,5.3,4.5,10.1V67c0,0.8-0.7,1.5-1.5,1.5c-0.8,0-1.5-0.7-1.5-1.5V14.7c0-3.6-1.1-6.4-3-7.5c-1.9-1.1-4.1-0.3-5.6,0.6
		L71.5,120.9c-5.6,3.2-10.1,11.9-10.1,19.4v118.4C61.4,259.6,60.7,260.3,59.9,260.3z"/>
	<path class="st1" d="M277.4,146.9c-0.8,0-1.5-0.7-1.5-1.5v-22.5c0-0.8,0.7-1.5,1.5-1.5c0.8,0,1.5,0.7,1.5,1.5v22.5
		C278.9,146.3,278.2,146.9,277.4,146.9z"/>
	<path class="st1" d="M115.9,291.2c-0.5,0-1-0.3-1.3-0.8c-0.4-0.7-0.2-1.6,0.5-2L246,212.9c0.7-0.4,1.6-0.2,2,0.6
		c0.4,0.7,0.2,1.6-0.5,2L116.6,291C116.4,291.1,116.1,291.2,115.9,291.2z"/>
	<path class="st1" d="M246.7,215.6c-0.5,0-1-0.3-1.3-0.8c-0.4-0.7-0.2-1.6,0.5-2l19.9-11.5c3.2-1.8,6.2-5.7,8.2-10.4
		c0.3-0.8,1.2-1.1,2-0.8c0.8,0.3,1.1,1.2,0.8,2c-2.2,5.3-5.6,9.6-9.4,11.8l-19.9,11.5C247.2,215.6,247,215.6,246.7,215.6z"/>
	<path class="st1" d="M288.6,311.2c-8.1,0-15.8-1.6-21.5-4.9L247,294.6c-5.6-3.2-8.8-7.7-9-12.7v-44.2c0-0.8,0.6-1.5,1.5-1.5
		c0.8,0,1.5,0.6,1.5,1.4c0.2,3.3,2,6.4,5.4,8.9c0.4,0.3,0.9,0.6,1.3,0.9c0,0,0.1,0.1,0.1,0.1c0.1,0.1,20.8,12,20.8,12
		c11.8,6.8,32.6,5.9,46.3-2c1-0.6,1.9-1.2,2.8-1.8c0.8-0.6,1.6-1.2,2.2-1.8c3.4-2.9,5.4-6.2,5.8-9.5c0.1-0.8,0.8-1.3,1.6-1.3
		c0.8,0.1,1.4,0.7,1.4,1.5v38.4c0,8.3-4.3,16.1-11.2,20.4c-0.3,0.2-0.6,0.4-0.9,0.5l-0.3,0.2C308.5,308.9,298.3,311.2,288.6,311.2z
		 M241,245.5v36.4c0.2,3.9,2.8,7.5,7.5,10.2l20.2,11.6c11.8,6.8,32.6,5.9,46.3-2c0,0,0.8-0.5,1.1-0.6c6-3.8,9.8-10.6,9.8-17.9v-31
		c-1,1.4-2.3,2.8-3.9,4.2c-0.7,0.6-1.5,1.3-2.5,1.9c-0.9,0.6-1.9,1.3-3,1.9c-14.5,8.4-36.7,9.3-49.3,2c0,0-20.8-12-21-12.2
		c0,0-0.1-0.1-0.1-0.1c-0.5-0.3-1-0.6-1.4-0.9C243.2,247.9,242,246.7,241,245.5z"/>
	<path class="st1" d="M327.3,246.3c-0.8,0-1.5-0.7-1.5-1.5c0-4.3-1.8-8-5.3-11c-0.6-0.5-0.7-1.5-0.2-2.1c0.5-0.6,1.5-0.7,2.1-0.2
		c4.2,3.6,6.4,8,6.4,13.3C328.8,245.6,328.1,246.3,327.3,246.3z"/>
	<path class="st1" d="M72.2,436.2c-8.1,0-15.8-1.6-21.5-4.9l-20.2-11.6c-5.6-3.2-8.8-7.7-9-12.7v-44.2c0-0.8,0.7-1.5,1.5-1.5
		c0.9,0,1.5,0.6,1.5,1.4c0.1,3.3,2,6.4,5.4,8.9l0.1,0.1c0.1,0.1,0.2,0.1,0.3,0.2c0.5,0.4,1.1,0.7,1.7,1.1l20.2,11.6
		c11.8,6.8,32.6,5.9,46.3-2c0,0,0.8-0.5,1-0.6c0.7-0.4,1.2-0.8,1.7-1.2c4.7-3.3,7.6-7.3,8.1-11.2c0.1-0.8,0.8-1.3,1.6-1.3
		c0.8,0.1,1.4,0.7,1.4,1.5v38.4c0,8.3-4.3,16.1-11.2,20.4c-0.4,0.2-0.8,0.5-1.2,0.7C92.1,433.8,81.9,436.2,72.2,436.2z M24.6,370.5
		v36.3c0.2,3.9,2.8,7.5,7.5,10.2l20.2,11.6c11.8,6.8,32.6,5.9,46.3-2c0.4-0.2,0.7-0.4,1.1-0.6c6-3.8,9.8-10.6,9.8-17.9v-31.1
		c-1.6,2.2-3.7,4.3-6.3,6.1c-0.6,0.4-1.2,0.8-1.9,1.3c-0.2,0.2-0.5,0.3-0.7,0.4l-0.3,0.2c-14.5,8.4-36.7,9.3-49.3,2l-20.2-11.6
		c-0.7-0.4-1.3-0.8-1.9-1.2c-0.1,0-0.2-0.2-0.4-0.3l-0.1-0.1C26.8,372.9,25.5,371.7,24.6,370.5z"/>
	<path class="st1" d="M110.9,371.2c-0.8,0-1.5-0.7-1.5-1.5c0-4.2-1-10.3-9.7-14.4c-0.8-0.3-1.1-1.2-0.7-2c0.3-0.8,1.2-1.1,2-0.7
		c7.7,3.6,11.4,9.2,11.4,17.1C112.4,370.6,111.7,371.2,110.9,371.2z"/>
	<path class="st1" d="M23.1,364.2c-0.8,0-1.5-0.7-1.5-1.5c0-9.4,1.5-12.6,7.4-15.3c0.8-0.3,1.6,0,2,0.7c0.3,0.8,0,1.6-0.7,2
		c-4.4,2-5.6,3.9-5.6,12.6C24.6,363.5,23.9,364.2,23.1,364.2z"/>
	<path class="st1" d="M13.4,218C13.3,218,13.3,218,13.4,218c-0.9,0-1.5-0.7-1.5-1.6c0.1-2.8,3.5-9.2,27.5-34.8
		c3.3-3.6,7-7.4,11.2-11.8c0.6-0.6,1.5-0.6,2.1,0c0.6,0.6,0.6,1.5,0,2.1c-4.2,4.4-7.8,8.2-11.1,11.8C19.7,207,15,214.5,14.9,216.6
		C14.8,217.4,14.2,218,13.4,218z"/>
	<path class="st1" d="M29.6,374.6c-0.8,0-1.5-0.7-1.5-1.5v-25.5c0-8.3-1.2-16.5-3.7-24.4c-3.4-11-7.4-27-10.9-41.1
		c-3.4-13.6-6.3-25.3-8-30.2C-10.1,210,9.8,198.3,37.3,182l2-1.2c0.7-0.4,1.6-0.2,2.1,0.5c0.4,0.7,0.2,1.6-0.5,2.1l-2,1.2
		c-27.2,16.1-45.2,26.7-30.5,66.1c1.8,5.1,4.7,16.9,8.1,30.5c3.5,14.1,7.5,30.1,10.8,41c2.5,8.2,3.8,16.7,3.8,25.3v25.5
		C31.1,373.9,30.4,374.6,29.6,374.6z"/>
	<path class="st1" d="M100.3,384.7c-0.8,0-1.5-0.7-1.5-1.5v-43.4c0-6.1,1.8-12.1,5.2-17.3c4.4-6.9,9.8-18.1,10.4-32.8
		c0-0.8,0.1-1.7,0.1-2.6c0-17.7-6.2-34.1-10.7-46c-2.2-5.8-4.1-10.8-4.8-14.6l-0.3-1.4c-1.8-10-7.5-40.4-17.9-46.2
		c-2-1.1-4-1.2-6.1-0.4c-5.5,2.1-3.9,18.3-2.6,31.3c0.6,6.4,1.2,12.4,1.2,17.5c0,10.1-5.6,22.1-10.4,30.4c-0.5,0.9-1.2,1.7-2.1,2.3
		c-2.2,1.6-5,1.8-7.4,0.5c-2.1-1.2-3.3-3.1-3.3-5.5V135.6c0-8.6,5.1-18.2,11.6-22L257.6,0.5c3.1-1.8,6.1-2,8.6-0.6l8.2,4.8
		c0.7,0.4,1,1.3,0.5,2c-0.4,0.7-1.3,1-2,0.5l-8.2-4.8c-1.9-1.1-4.1-0.3-5.6,0.6L63.2,116.2c-5.6,3.2-10.1,11.9-10.1,19.4V255
		c0,1.4,0.5,2.2,1.7,2.9c1.3,0.7,2.9,0.6,4.2-0.3c0.5-0.4,0.9-0.8,1.2-1.4c4.6-8,10-19.4,10-28.9c0-4.9-0.6-10.9-1.2-17.2
		c-1.6-16.2-3.1-31.4,4.5-34.4c3-1.2,5.9-1,8.7,0.5c11.7,6.5,17.3,36.9,19.4,48.3l0.3,1.4c0.7,3.6,2.5,8.4,4.7,14.1
		c4.6,12.2,10.9,28.8,10.9,47.1c0,0.9,0,1.8-0.1,2.7c-0.6,15.4-6.2,27.2-10.8,34.3c-3.1,4.8-4.7,10.2-4.7,15.7v43.4
		C101.8,384,101.2,384.7,100.3,384.7z"/>
	<path class="st1" d="M246.9,250.2c-0.8,0-1.5-0.7-1.5-1.5v-26.8c0-2.6-0.1-5.2-0.2-7.7l1.5-0.1h1.5c0.1,2.5,0.2,5.1,0.2,7.8v26.8
		C248.4,249.6,247.8,250.2,246.9,250.2z"/>
	<path class="st1" d="M320.9,256.7L320.9,256.7c-0.9,0-1.5-0.7-1.5-1.5l0.7-42.9c0-1,2.2-100.4,4-120.2c1.1-12.9-20.1-32-47.2-42.5
		c-0.8-0.3-1.2-1.2-0.9-1.9c0.3-0.8,1.2-1.2,1.9-0.9c25.2,9.7,50.5,29.4,49.1,45.5c-1.7,19.7-3.9,119-3.9,120l-0.7,42.9
		C322.4,256,321.8,256.7,320.9,256.7z"/>
	<path class="st1" d="M279.6,210.9c-0.6,0-1.2-0.4-1.4-1c-0.1-0.3-2.5-7.5-4.3-18c-2.3-13.1-3.8-31.9,2.1-47
		c0.1-0.2,0.2-0.5,0.3-0.7c1.9-4.7,2.4-9.7,1.3-14.3c0,0-1.1-4.8-1.6-6.6c-5.3-22.7-9-45.3-0.6-56.2c0.3-0.4,0.7-0.8,1.1-1.2
		c1.7-1.6,3.5-1.6,4.6-1.3c7,1.9,13.1,20.9,20.3,45.4c2.3,8,4.4,14.9,5.7,17.7c0.4,0.7,0.1,1.6-0.7,2c-0.7,0.4-1.6,0.1-2-0.7
		c-1.5-3-3.4-9.7-5.9-18.2c-4.6-15.6-12.2-41.7-18.2-43.4c-0.4-0.1-1-0.1-1.8,0.6c-0.2,0.2-0.5,0.5-0.7,0.8
		c-7.6,10-3.9,31.7,1.2,53.7c0.4,1.8,1.6,6.6,1.6,6.6c1.2,5.3,0.8,10.9-1.4,16.1c-0.1,0.2-0.2,0.4-0.3,0.6
		c-5.6,14.5-4.2,32.7-2,45.4c1.8,10.2,4.2,17.5,4.2,17.5c0.3,0.8-0.2,1.6-1,1.9C279.9,210.8,279.8,210.9,279.6,210.9z"/>
	<path class="st1" d="M239.5,239.2c-0.8,0-1.5-0.7-1.5-1.5c0-4.4,3-8.5,8.2-11.3c0.7-0.4,1.6-0.1,2,0.6c0.4,0.7,0.1,1.6-0.6,2
		c-2,1.1-6.6,4-6.6,8.6C241,238.6,240.3,239.2,239.5,239.2z"/>
	<path class="st2" d="M217.6,157.5c3.3-9.1,5.2-18.4,5.2-27.1c0-28-19.7-39.3-43.9-25.4c-24.2,14-43.9,48-43.9,76
		c0,28,19.7,39.3,43.9,25.3C195.6,196.8,210.1,177.6,217.6,157.5z"/>
	<g>
		<polygon class="st1" points="169.2,156.9 156.7,169.5 169.2,167.5 169.2,172.9 151.3,175.4 151.3,169.7 169.2,151.5 		"/>
		<polygon class="st1" points="182.7,133.1 187.9,130 175.5,178.1 170.3,181.2 		"/>
		<polygon class="st1" points="206.5,137.9 206.5,143.5 188.6,161.7 188.6,156.3 201.1,143.8 188.6,145.7 188.6,140.3 		"/>
	</g>
	<path class="st1" d="M159.3,213.9c-4.4,0-8.5-1-12.2-3.1c-8.8-5.1-13.6-15.6-13.6-29.7c0-28.4,20-63.1,44.6-77.3
		c12.2-7,23.7-8.1,32.5-3.1c8.8,5.1,13.6,15.6,13.6,29.7c0,8.6-1.8,18.1-5.3,27.6l0,0c-7.8,21.2-22.9,40.2-39.3,49.7
		C172.5,211.8,165.6,213.9,159.3,213.9z M198.5,100.5c-5.7,0-12.2,1.9-18.8,5.8c-23.8,13.7-43.1,47.3-43.1,74.7
		c0,13,4.3,22.6,12.1,27.1c7.8,4.5,18.3,3.4,29.5-3.1c15.9-9.2,30.4-27.6,38-48.1c3.4-9.2,5.2-18.4,5.2-26.6
		c0-13-4.3-22.6-12.1-27.1C206,101.4,202.4,100.5,198.5,100.5z M217.6,157.5L217.6,157.5L217.6,157.5z"/>
	<path class="st1" d="M83.2,147.5c-0.6,0-1.2-0.2-1.7-0.5c-1.2-0.7-1.9-2.1-1.9-3.8c0-3,2-6.4,4.6-7.9c1.5-0.9,3-1,4.2-0.3
		c1.2,0.7,1.9,2.1,1.9,3.8c0,3-2,6.4-4.6,7.9C84.9,147.3,84,147.5,83.2,147.5z M86.6,137.6c-0.2,0-0.5,0.1-1,0.3
		c-1.6,0.9-3.1,3.4-3.1,5.3c0,0.7,0.2,1.1,0.4,1.2c0.2,0.1,0.6,0.1,1.2-0.3c1.6-0.9,3.1-3.4,3.1-5.3c0-0.7-0.2-1.1-0.4-1.2
		C86.8,137.7,86.8,137.6,86.6,137.6z"/>
	<path class="st1" d="M98,139c-0.6,0-1.2-0.2-1.7-0.5c-1.2-0.7-1.9-2.1-1.9-3.8c0-3,2-6.4,4.6-7.9c1.5-0.9,3-1,4.2-0.3
		c1.2,0.7,1.9,2.1,1.9,3.8c0,3-2,6.4-4.6,7.9C99.6,138.7,98.8,139,98,139z M101.4,129.1c-0.2,0-0.5,0.1-1,0.3
		c-1.6,0.9-3.1,3.4-3.1,5.3c0,0.7,0.2,1.1,0.4,1.2c0.2,0.1,0.6,0.1,1.2-0.3c1.6-0.9,3.1-3.4,3.1-5.3c0-0.7-0.2-1.1-0.4-1.2
		C101.6,129.2,101.5,129.1,101.4,129.1z"/>
	<path class="st1" d="M112.7,130.5c-0.6,0-1.2-0.2-1.7-0.5c-1.2-0.7-1.9-2.1-1.9-3.8c0-3,2-6.4,4.6-7.9c1.5-0.9,3-1,4.2-0.3
		c1.2,0.7,1.9,2.1,1.9,3.8c0,3-2,6.4-4.6,7.9C114.3,130.2,113.5,130.5,112.7,130.5z M116.1,120.6c-0.2,0-0.5,0.1-1,0.3
		c-1.6,0.9-3.1,3.4-3.1,5.3c0,0.7,0.2,1.1,0.4,1.2c0.2,0.1,0.6,0.1,1.2-0.3c1.6-0.9,3.1-3.4,3.1-5.3c0-0.7-0.2-1.1-0.4-1.2
		C116.3,120.7,116.2,120.6,116.1,120.6z"/>
</g>
</svg>
