<?xml version="1.0" encoding="utf-8"?>
<!-- Generator: Adobe Illustrator 22.0.0, SVG Export Plug-In . SVG Version: 6.00 Build 0)  -->
<svg version="1.1" id="Layer_1" xmlns="http://www.w3.org/2000/svg" xmlns:xlink="http://www.w3.org/1999/xlink" x="0px" y="0px"
	 viewBox="0 0 300.3 318" style="enable-background:new 0 0 300.3 318;" xml:space="preserve">
<style type="text/css">
	.st0{fill:#303034;}
	.st1{fill:#FFFFFF;}
	.st2{fill:#6F6F75;}
	.st3{fill:#C4FF11;}
</style>
<g>
	<g id="cyclinde">
		<g>
			<path class="st0" d="M270,177.6c1.2,0.7,1.9,2.2,1.9,4.3c0,4.2-3,9.4-6.6,11.5c-1.9,1.1-3.6,1.2-4.8,0.4
				c-1.1-0.7-1.9-2.2-1.9-4.2c0-4.2,3-9.4,6.6-11.5C267.1,177,268.8,176.9,270,177.6z"/>
			<path class="st1" d="M233.9,156.8l36.1,20.8c-1.2-0.7-2.9-0.6-4.7,0.5c-3.7,2.1-6.6,7.3-6.6,11.5c0,2.1,0.7,3.5,1.9,4.2l0,0
				l-36-20.8c-1.2-0.7-1.9-2.2-1.9-4.3c0-4.2,3-9.4,6.6-11.5C231.1,156.2,232.7,156.1,233.9,156.8z"/>
		</g>
		<g>
			<path class="st1" d="M262.3,195.1c-0.8,0-1.6-0.2-2.2-0.6c-1.4-0.9-2.2-2.6-2.2-4.9c0-4.5,3.1-9.9,7-12.2c2-1.2,4-1.3,5.5-0.5
				c1.5,0.9,2.3,2.6,2.3,5c0,4.5-3.1,9.9-7,12.2C264.5,194.7,263.4,195.1,262.3,195.1z M268.2,177.9c-0.8,0-1.6,0.3-2.6,0.8
				c-3.4,2-6.2,6.8-6.2,10.8c0,1.7,0.5,3,1.5,3.6s2.4,0.5,4-0.4c3.4-2,6.2-6.8,6.2-10.8c0-1.8-0.6-3-1.6-3.6
				C269.2,178.1,268.7,177.9,268.2,177.9z"/>
			<path class="st1" d="M260.6,194.6c-0.1,0-0.3,0-0.4-0.1l-36.1-20.8c-1.5-0.9-2.3-2.6-2.3-5c0-4.5,3.1-9.9,7-12.2
				c2-1.2,4-1.3,5.5-0.5l36.1,20.8c0.4,0.2,0.5,0.7,0.3,1.1c-0.2,0.4-0.7,0.5-1.1,0.3l-36.1-20.8c-1-0.6-2.4-0.4-3.9,0.5
				c-3.4,2-6.2,6.8-6.2,10.8c0,1.8,0.6,3,1.6,3.6l36.1,20.8c0.4,0.2,0.5,0.7,0.3,1.1C261.1,194.5,260.9,194.6,260.6,194.6z"/>
		</g>
	</g>
	<g id="Arrow">
		<path class="st1" d="M276.9,253.5h-0.1l-22.2-4c-0.3-0.1-0.6-0.3-0.6-0.6c-0.1-0.3,0.1-0.6,0.4-0.8l15.3-8.8
			c0.2-0.1,0.4-0.1,0.6-0.1c0.2,0.1,0.4,0.2,0.5,0.4l7,12.8c0.1,0.3,0.1,0.6-0.1,0.8C277.4,253.4,277.2,253.5,276.9,253.5z
			 M257,248.3l18.5,3.3l-5.8-10.7L257,248.3z"/>
		<path class="st1" d="M261.5,245c-0.1,0-0.3,0-0.4-0.1l-21.4-12.4c-0.2-0.1-0.4-0.4-0.4-0.7s0.1-0.5,0.4-0.7l14.8-8.6l-36.3-22.7
			c-0.4-0.2-0.5-0.7-0.2-1.1c0.2-0.4,0.7-0.5,1.1-0.2l37.4,23.4c0.2,0.1,0.4,0.4,0.4,0.7s-0.2,0.5-0.4,0.7l-14.8,8.5l20.3,11.7
			c0.4,0.2,0.5,0.7,0.3,1.1C262,244.8,261.8,245,261.5,245z"/>
	</g>
	<g>
		<path class="st0" d="M163.5,211.4l-0.2-0.1c-13.6-8.5-22-25.8-22-50.2c0-50.1,35.2-111,78.5-136c21.3-12.3,40.5-13.7,54.7-6
			l0.8,0.5c14.2,8.2,23,25.8,23,50.8c0,9.2-1.2,18.7-3.4,28.2c-9.8,42.9-39.7,87.3-75.2,107.8C197.8,219.2,177.8,220.2,163.5,211.4z
			 M250.4,35.9c-9-0.7-19.4,1.9-30.5,8.3c-34.2,19.8-62,67.8-62,107.3c0,12.8,2.9,23.1,8,30.6c10.6,15.6,30.8,18.6,53.9,5.2
			c34.2-19.8,62-67.8,62-107.3C281.8,53.3,269.2,37.3,250.4,35.9z"/>
		<path class="st2" d="M251.9,6l22.6,13.1c-14.1-7.7-33.4-6.3-54.7,6c-43.4,25-78.5,85.9-78.5,136c0,24.4,8.4,41.8,22,50.2
			c0,0-22.6-13-22.7-13.1l-1.3-0.5c4.5-5.9,3.8-14.4-1.8-19.6c-4.2-3.8-10-4.7-15.1-2.8c-2.4-6.5-4-14.1-4.4-22.6
			c-0.1-1.7-0.1-3.5-0.1-5.2c0-37.5,19.7-81,47.8-111l0,0c9.4-10.1,19.9-18.7,30.8-25C218.1-1,237.7-2.2,251.9,6z"/>
		<path class="st1" d="M250.4,35.9c18.8,1.4,31.5,17.4,31.5,44.1c0,39.5-27.7,87.6-62,107.3c-23.1,13.4-43.3,10.4-53.9-5.2
			c9,0.7,19.4-2,30.5-8.3c34.2-19.8,62-67.8,62-107.3C258.4,53.7,255.5,43.4,250.4,35.9z"/>
		<path class="st0" d="M126.8,188.7c5,4.5,6.4,11.4,4.2,17.3l-86,82.7c-7.3,7-18.7,7.2-26.2,0.4c-8.6-7.9-8.3-21.5,0.7-29l87.8-73.1
			l0.2,0.2C113.3,183.3,121.3,183.8,126.8,188.7z"/>
		<path class="st3" d="M107.2,187.1l11.2-9.3c1.2-1,2.6-1.8,4-2.4c5-2,10.9-1,15.1,2.8c5.7,5.1,6.3,13.7,1.8,19.6
			c-0.5,0.6-1,1.2-1.5,1.7l-6.8,6.6c2.2-5.9,0.8-12.8-4.2-17.3c-5.4-4.9-13.4-5.4-19.4-1.4L107.2,187.1z"/>
	</g>
	<g>
		<path class="st1" d="M184.8,218c-8,0-15.3-2-21.7-5.9c-0.4-0.2-0.5-0.7-0.3-1.1c0.2-0.4,0.7-0.5,1.1-0.3c14.7,9,34.4,7.2,55.6-5
			c34.2-19.7,64.9-63.8,74.8-107.3c2.2-9.7,3.3-19.2,3.3-28.1c0-23.9-8-41.8-22.6-50.2c-0.4-0.2-0.5-0.7-0.3-1.1s0.7-0.5,1.1-0.3
			c15.1,8.7,23.4,27,23.4,51.5c0,9-1.1,18.6-3.4,28.4c-4.8,21.1-14.8,43.3-28.1,62.6c-13.8,19.9-30.2,35.7-47.5,45.7
			C207.8,214.4,195.7,218,184.8,218z"/>
		<path class="st1" d="M163.3,212.1c-0.1,0-0.3,0-0.4-0.1c-14.4-8.9-22.3-27-22.3-50.9c0-50.3,35.4-111.6,78.9-136.7
			c20.8-12,40.5-14.1,55.4-6c0.4,0.2,0.5,0.7,0.3,1.1s-0.7,0.5-1.1,0.3c-14.5-7.9-33.6-5.8-53.9,6c-43.1,24.9-78.1,85.6-78.1,135.3
			c0,23.3,7.7,40.9,21.6,49.6c0.4,0.2,0.5,0.7,0.3,1.1C163.8,212,163.6,212.1,163.3,212.1z"/>
		<path class="st1" d="M192.2,196.5c-11.1,0-20.6-4.7-26.9-14c-5.3-7.8-8.1-18.5-8.1-31c0-39.7,28-88.2,62.4-108
			c10.9-6.3,21.6-9.2,31-8.4c19.8,1.5,32.2,18.7,32.2,44.9c0,39.7-28,88.2-62.4,108C210.4,193.7,200.8,196.5,192.2,196.5z
			 M247.5,36.6c-8.4,0-17.7,2.9-27.2,8.3c-33.9,19.6-61.6,67.4-61.6,106.6c0,12.2,2.7,22.6,7.9,30.1c6,8.8,15,13.3,25.6,13.3
			c8.3,0,17.6-2.7,27.3-8.3c33.9-19.6,61.6-67.4,61.6-106.7c0-25.3-11.8-41.8-30.7-43.3C249.4,36.6,248.5,36.6,247.5,36.6z"/>
		<path class="st1" d="M168.7,183c-1,0-1.9,0-2.9-0.1c-0.4,0-0.7-0.4-0.7-0.8c0-0.4,0.3-0.8,0.8-0.8l0,0c0,0,0,0,0.1,0
			c9.1,0.7,19.5-2.1,30-8.2c33.9-19.6,61.6-67.4,61.6-106.7c0-12.2-2.7-22.6-7.8-30.1c-0.2-0.3-0.2-0.6,0-0.9
			c0.2-0.4,0.7-0.5,1.1-0.2c0.1,0.1,0.2,0.2,0.2,0.3c5.3,7.8,8.1,18.5,8.1,31c0,39.7-28,88.2-62.4,108
			C187.1,180.1,177.4,183,168.7,183z"/>
		<path class="st1" d="M122.4,176.2c-0.3,0-0.6-0.2-0.7-0.5c-2.5-6.8-4-14.4-4.4-22.8c-0.1-1.6-0.1-3.3-0.1-5.3
			c0-36.6,18.8-80.3,47.9-111.5c0,0,0-0.1,0.1-0.1c9.8-10.5,20.2-18.9,31-25.1c21.2-12.3,41.2-14.2,56.3-5.5L276,19
			c0.4,0.2,0.5,0.7,0.3,1.1s-0.7,0.5-1.1,0.3L251.5,6.7c-14.6-8.4-34-6.5-54.7,5.5c-10.6,6.1-20.9,14.4-30.5,24.8c0,0,0,0.1-0.1,0.1
			c-28.9,30.9-47.5,74.2-47.5,110.5c0,1.9,0,3.6,0.1,5.2c0.4,8.2,1.9,15.7,4.3,22.4c0.2,0.4-0.1,0.9-0.5,1
			C122.6,176.1,122.5,176.2,122.4,176.2z"/>
		<path class="st1" d="M164.4,212.7c-0.1,0-0.3,0-0.4-0.1c0,0-23.7-13.6-23.8-13.7c-0.4-0.2-0.5-0.7-0.2-1.1
			c0.2-0.4,0.7-0.5,1.1-0.2l0.1,0.1c0,0,0,0,0.1,0l23.5,13.6c0.4,0.2,0.5,0.7,0.3,1.1C164.9,212.6,164.6,212.7,164.4,212.7z"/>
		<path class="st1" d="M31.6,294.9c-4.8,0-9.6-1.7-13.4-5.2c-4.3-3.9-6.7-9.4-6.5-15.2c0.1-5.8,2.8-11.2,7.2-15l99-82.4
			c1.3-1.1,2.7-1.9,4.3-2.5c5.5-2.1,11.5-1,15.9,2.9c5.8,5.3,6.7,14.3,1.9,20.6c-0.5,0.6-1,1.2-1.6,1.8l-92.9,89.3
			C41.6,293,36.6,294.9,31.6,294.9z M127.7,175.2c-1.7,0-3.4,0.3-5,0.9c-1.4,0.5-2.7,1.3-3.8,2.3l-99,82.4
			c-4.1,3.4-6.5,8.5-6.7,13.8c-0.1,5.3,2.1,10.4,6,14c7.1,6.5,18.2,6.3,25.1-0.4l92.9-89.3c0.5-0.5,1-1.1,1.4-1.6
			c4.3-5.6,3.5-13.8-1.7-18.5C134.4,176.4,131.1,175.2,127.7,175.2z"/>
		<path class="st1" d="M130.9,206.8c-0.1,0-0.2,0-0.3-0.1c-0.4-0.2-0.6-0.6-0.5-1c2.2-5.8,0.6-12.3-4-16.4
			c-5.1-4.6-12.7-5.2-18.5-1.4c-0.4,0.2-0.8,0.1-1.1-0.2c-0.2-0.4-0.1-0.8,0.2-1.1c6.3-4.2,14.7-3.6,20.4,1.5
			c5.1,4.6,6.8,11.7,4.4,18.1C131.5,206.6,131.3,206.8,130.9,206.8z"/>
	</g>
</g>
</svg>
