<svg width="185" height="66" viewBox="0 0 185 66" fill="none" xmlns="http://www.w3.org/2000/svg">
<path d="M20.6372 65.438H19.3043C18.3989 65.4235 17.4957 65.3436 16.6018 65.199C15.7946 65.0617 15.0134 64.8014 14.2853 64.427C13.5591 64.0664 12.8975 63.5881 12.3273 63.0116L3.68652 54.3632L9.88217 52.5251V20.4314C9.88217 20.4314 9.88217 19.4204 9.88217 19.1171C9.89015 18.1932 9.97006 17.2714 10.1212 16.3599C10.2594 15.5515 10.5165 14.7679 10.8841 14.0346C11.2519 13.3128 11.7294 12.6524 12.2998 12.077C12.8758 11.5009 13.5398 11.0201 14.2669 10.6525C14.9965 10.2837 15.7774 10.0265 16.5834 9.88965C17.4767 9.7405 18.3803 9.6606 19.2859 9.65069H20.628H158.155L173.69 5.16565L181.172 12.1046L181.264 12.2057C181.797 12.7494 182.246 13.3688 182.597 14.0438C182.96 14.7716 183.214 15.5489 183.351 16.3507C183.499 17.2627 183.582 18.1841 183.599 19.1079C183.599 19.5215 183.599 19.9719 183.599 20.4222C183.599 20.8726 183.599 21.5067 183.599 22.0398V53.0306C183.599 53.5637 183.599 54.0875 183.599 54.6114C183.599 55.1352 183.599 55.5304 183.599 55.99C183.581 56.8863 183.498 57.7801 183.351 58.6645C183.221 59.4797 182.967 60.2701 182.597 61.008C181.838 62.4442 180.662 63.6169 179.223 64.3718C178.486 64.7463 177.695 65.0066 176.879 65.1438C175.989 65.288 175.088 65.3679 174.186 65.3828H20.674L20.6372 65.438Z" fill="white"/>
<path d="M173.571 5.74516L180.686 12.3533L180.796 12.4544L180.897 12.5647C181.946 13.6312 182.631 15.0013 182.855 16.4799C183.002 17.355 183.085 18.2396 183.103 19.1268C183.103 19.5496 183.103 19.9907 183.103 20.4594C183.103 20.9281 183.103 21.5255 183.103 22.0586V53.0495C183.103 53.5825 183.103 54.0972 183.103 54.6395C183.103 55.1817 183.103 55.5585 183.103 55.9997C183.083 56.8772 183.003 57.7523 182.864 58.619C182.737 59.383 182.495 60.1236 182.147 60.8155C181.803 61.4973 181.35 62.1182 180.805 62.6537C180.27 63.1967 179.649 63.647 178.967 63.9863C178.272 64.3389 177.528 64.5867 176.76 64.7216C175.887 64.8584 175.006 64.9352 174.122 64.9513H19.3049C18.4274 64.9349 17.552 64.8582 16.685 64.7216C15.9218 64.5857 15.182 64.3411 14.4881 63.9955C13.8053 63.6528 13.1841 63.1994 12.6496 62.6537L4.55116 54.5659L9.6713 53.0862L10.3331 52.8932V20.4594C10.3331 20.4594 10.3331 19.4485 10.3331 19.136C10.3439 18.2519 10.4238 17.3699 10.5721 16.4983C10.6964 15.7335 10.9382 14.9925 11.2891 14.3017C11.6285 13.6194 12.0789 12.9982 12.622 12.4636C13.1585 11.9176 13.7792 11.4615 14.4605 11.1126C15.151 10.7685 15.888 10.527 16.6483 10.3957C17.5209 10.2546 18.4026 10.1778 19.2865 10.1659H20.6102H158.22H158.348L173.571 5.77276M173.81 4.74341L158.091 9.28365H20.6378H19.3049C18.3805 9.29392 17.4585 9.37679 16.5472 9.5317C15.6965 9.67379 14.8722 9.94346 14.102 10.3314C13.3361 10.7278 12.6355 11.2391 12.0245 11.8478C11.4159 12.4531 10.9071 13.1511 10.517 13.9157C10.1275 14.6916 9.85785 15.5221 9.71725 16.3788C9.56224 17.2899 9.47926 18.2118 9.46907 19.136C9.46907 19.4301 9.46907 20.4594 9.46907 20.4594V52.2131L2.85059 54.1247L12.0429 63.3154C12.646 63.9267 13.3446 64.4357 14.1112 64.8226C14.8837 65.2149 15.7112 65.4876 16.5656 65.6314C17.4779 65.7779 18.3994 65.8608 19.3233 65.8796H174.187C175.111 65.8657 176.033 65.7828 176.944 65.6314C177.805 65.4891 178.639 65.2164 179.417 64.8226C180.952 64.0357 182.202 62.7889 182.993 61.2567C183.385 60.4786 183.655 59.6448 183.793 58.7844C183.948 57.8732 184.034 56.9515 184.05 56.0272C184.05 55.5769 184.05 55.1082 184.05 54.6487C184.05 54.1891 184.05 53.5917 184.05 53.0587V22.0861C184.05 21.5531 184.05 21.02 184.05 20.4686C184.05 19.9171 184.05 19.5496 184.05 19.1452C184.031 18.2211 183.945 17.2996 183.793 16.388C183.534 14.7266 182.763 13.1874 181.586 11.9856H181.54L181.301 11.7651L173.791 4.79861L173.81 4.74341Z" fill="black"/>
<path d="M11.4363 56.9185H10.1034C9.1793 56.9038 8.25756 56.8208 7.34569 56.6703C6.49205 56.5237 5.6649 56.2511 4.89132 55.8615C4.12468 55.4746 3.42612 54.9655 2.82305 54.3543C2.21039 53.7524 1.70107 53.0537 1.3155 52.2864C0.923184 51.514 0.650443 50.6867 0.506588 49.8325C0.359093 48.9206 0.2792 47.999 0.267578 47.0753C0.267578 46.7629 0.267578 45.7242 0.267578 45.7242V11.5167C0.267578 11.5167 0.267578 10.4874 0.267578 10.1933C0.2792 9.26958 0.359093 8.34801 0.506588 7.43608C0.651866 6.57931 0.924516 5.74904 1.3155 4.97294C1.70228 4.20866 2.20804 3.51067 2.81386 2.90505C4.04052 1.67197 5.62762 0.860853 7.34569 0.588986C8.25698 0.434006 9.17907 0.351015 10.1034 0.34082H11.4363H163.652H165.004C165.927 0.351073 166.849 0.43096 167.761 0.579786C168.622 0.728127 169.455 1.00382 170.234 1.39777C171.771 2.18953 173.022 3.44307 173.81 4.98214C174.196 5.74882 174.463 6.57022 174.6 7.41768C174.753 8.32928 174.839 9.25078 174.858 10.1749C174.858 10.5976 174.858 11.0939 174.858 11.4983C174.858 11.9027 174.858 12.5828 174.858 13.1158V44.0516C174.858 44.5846 174.858 45.1177 174.858 45.6415C174.858 46.1654 174.858 46.5606 174.858 47.0201C174.84 47.9439 174.757 48.8652 174.61 49.7773C174.468 50.6366 174.198 51.47 173.81 52.2497C173.416 53.0065 172.907 53.6978 172.302 54.2992C171.697 54.9105 170.999 55.4223 170.234 55.8157C169.455 56.2067 168.621 56.4793 167.761 56.6244C166.849 56.7754 165.928 56.8582 165.004 56.8725H11.4914L11.4363 56.9185Z" fill="black"/>
<path d="M35.0979 29.025C35.1051 27.8078 35.4214 26.6124 36.0171 25.5509C36.6203 24.4942 37.4762 23.6037 38.5083 22.9592C37.8512 22.0174 36.9827 21.2425 35.9723 20.6966C34.9618 20.1508 33.8375 19.8492 32.6895 19.8159C30.2352 19.5586 27.8635 21.2772 26.6134 21.2772C25.3632 21.2772 23.4144 19.8343 21.3462 19.8802C20.0072 19.9237 18.7024 20.3132 17.5586 21.0105C16.4149 21.7079 15.4713 22.6896 14.8196 23.8598C11.9976 28.7493 14.1026 35.9271 16.8052 39.8791C18.1564 41.8091 19.7375 43.9689 21.8058 43.8954C23.8741 43.8219 24.5635 42.6088 27.027 42.6088C29.4906 42.6088 30.1616 43.8954 32.2759 43.8495C34.3901 43.8035 35.8149 41.9011 37.1202 39.9527C38.0886 38.5726 38.836 37.0501 39.3356 35.44C38.0703 34.9064 36.9906 34.0113 36.2319 32.8668C35.4732 31.7224 35.0691 30.3796 35.0703 29.0066L35.0979 29.025Z" fill="white"/>
<path d="M28.056 14.5408C27.4727 15.2122 27.0234 15.989 26.7323 16.8293C26.446 17.6711 26.3303 18.5615 26.3922 19.4486C27.2978 19.4606 28.1943 19.2657 29.0131 18.8786C29.8319 18.4916 30.5516 17.9227 31.117 17.2153C32.2965 15.7918 32.8795 13.9672 32.7441 12.1237C30.9346 12.3169 29.2627 13.1789 28.056 14.5408Z" fill="white"/>
<path d="M55.7432 25.7805L49.1982 43.8952H52.1214L53.7852 38.9967H60.6887L62.3433 43.8952H65.3216L58.7766 25.7805H55.7432ZM54.493 36.699L57.1956 28.7583H57.2783L59.9717 36.699H54.493Z" fill="white"/>
<path d="M73.8974 30.5509C73.0501 30.5235 72.2113 30.7268 71.4706 31.139C70.7298 31.5468 70.1159 32.1511 69.6965 32.8852H69.6413V30.6887H67.0215V48.2704H69.7332V41.7266H69.7884C70.199 42.4605 70.8031 43.0677 71.5349 43.4821C72.2733 43.8884 73.1109 44.0795 73.9525 44.0335C77.271 44.0335 79.4679 41.3958 79.4679 37.2968C79.4587 33.1978 77.2434 30.5509 73.8974 30.5509ZM76.6551 37.2968C76.6551 39.9897 75.2762 41.7358 73.162 41.7358C71.0478 41.7358 69.6965 39.9529 69.6965 37.2968C69.6965 34.6407 71.0937 32.8576 73.162 32.8576C75.2303 32.8576 76.6551 34.6223 76.6551 37.2968Z" fill="white"/>
<path d="M88.4315 30.5509C87.5843 30.5235 86.7455 30.7268 86.0048 31.139C85.264 31.5468 84.6501 32.1511 84.2306 32.8852H84.1755V30.6887H81.5557V48.2704H84.2674V41.7266H84.3318C84.7354 42.4645 85.3399 43.073 86.0753 43.4813C86.8107 43.8896 87.6469 44.081 88.4867 44.0335C91.8051 44.0335 94.0021 41.3958 94.0021 37.2968C94.0021 33.1978 91.7867 30.5509 88.4315 30.5509ZM91.1892 37.2968C91.1892 39.9897 89.8104 41.7358 87.7053 41.7358C85.6003 41.7358 84.2398 39.9529 84.2398 37.2968C84.2398 34.6407 85.6279 32.8576 87.7053 32.8576C89.7828 32.8576 91.1892 34.6223 91.1892 37.2968Z" fill="white"/>
<path d="M109.473 33.6663L107.478 33.1701C105.143 32.6003 104.187 31.8465 104.187 30.5599C104.187 28.9515 105.685 27.8027 107.864 27.8027C110.043 27.8027 111.541 28.8964 111.706 30.7069H114.464C114.372 27.5729 111.706 25.4315 107.919 25.4315C104.132 25.4315 101.319 27.5729 101.319 30.7069C101.319 33.2252 102.863 34.7876 106.191 35.5872L108.544 36.157C110.897 36.7269 111.881 37.5723 111.881 38.9785C111.881 40.5961 110.245 41.7357 107.956 41.7357C105.667 41.7357 103.819 40.5501 103.617 38.758H100.859C101.034 42.039 103.755 44.107 107.772 44.107C112.065 44.107 114.767 41.9839 114.767 38.5926C114.74 36.0376 113.196 34.5394 109.473 33.6663Z" fill="white"/>
<path d="M120.596 27.564H117.838V30.6887H115.917V32.8302H117.838V40.3757C117.838 42.9399 118.886 43.9508 121.561 43.9508C122.067 43.9586 122.572 43.9155 123.069 43.8222V41.69C122.764 41.7278 122.457 41.7462 122.149 41.7451C121.046 41.7451 120.541 41.2212 120.541 40.0907V32.8026H123.05V30.6612H120.596V27.564Z" fill="white"/>
<path d="M130.826 30.5232C127.012 30.5232 124.566 33.1333 124.566 37.2967C124.566 41.4601 126.984 44.061 130.826 44.061C134.669 44.061 137.096 41.4601 137.096 37.2967C137.096 33.1333 134.66 30.5232 130.826 30.5232ZM130.826 41.8276C128.629 41.8276 127.324 40.155 127.324 37.2967C127.324 34.4384 128.629 32.7565 130.826 32.7565C133.023 32.7565 134.338 34.4384 134.338 37.2967C134.338 40.155 133.023 41.8276 130.826 41.8276Z" fill="white"/>
<path d="M143.153 31.1851C142.575 31.6205 142.163 32.2397 141.985 32.9405H141.921V30.6979H139.338V43.9049H142.05V36.0744C142.006 35.6833 142.047 35.2875 142.169 34.9134C142.291 34.5393 142.491 34.1955 142.757 33.9055C143.013 33.6189 143.326 33.3902 143.677 33.2346C144.041 33.086 144.433 33.0171 144.826 33.0324C145.239 33.0227 145.652 33.0785 146.048 33.1978V30.6612C145.747 30.5915 145.438 30.5575 145.129 30.56C144.419 30.5404 143.723 30.7606 143.153 31.1851Z" fill="white"/>
<path d="M158.753 37.9673V37.0482C158.753 33.0411 156.445 30.5321 152.796 30.5321C149.147 30.5321 146.674 33.2249 146.674 37.3607C146.674 41.4965 149.064 44.0699 152.906 44.0699C155.894 44.0699 158.229 42.4248 158.596 40.026H156.022C155.782 40.6243 155.353 41.1278 154.8 41.4598C154.251 41.802 153.604 41.9507 152.961 41.8825C152.474 41.9026 151.988 41.8177 151.536 41.6338C151.084 41.4499 150.677 41.1711 150.342 40.8164C150.002 40.4635 149.744 40.0398 149.588 39.5757C149.426 39.1161 149.363 38.6274 149.404 38.1419V37.9765L158.753 37.9673ZM149.68 34.7874C149.854 34.3799 150.103 34.0088 150.415 33.6936C150.728 33.3818 151.099 33.1352 151.508 32.968C151.917 32.8008 152.354 32.7163 152.796 32.7195C153.234 32.7114 153.668 32.7927 154.074 32.9584C154.48 33.124 154.847 33.3747 155.149 33.6936C155.453 34.0058 155.688 34.3785 155.839 34.7874C155.994 35.1976 156.06 35.6362 156.032 36.074H149.432C149.43 35.6331 149.515 35.1962 149.68 34.7874Z" fill="white"/>
<path d="M54.2803 10.5336H57.1942C57.6984 10.5179 58.2025 10.5703 58.6926 10.6898C59.1492 10.8195 59.5621 11.0704 59.8876 11.4159C60.2281 11.7823 60.4853 12.2182 60.6414 12.6934C60.8262 13.2881 60.9132 13.9089 60.8987 14.5315C60.9094 15.1013 60.8287 15.6691 60.6598 16.2134C60.4891 16.7379 60.1997 17.216 59.8141 17.6104C59.4946 17.904 59.1104 18.1182 58.6926 18.2354C58.2313 18.3593 57.7544 18.415 57.277 18.4008H54.2803V10.5336ZM55.8706 11.8754V17.105H57.0656C57.3894 17.1163 57.7135 17.0885 58.0307 17.0222C58.2672 16.9661 58.4875 16.856 58.6742 16.7005C58.8728 16.4842 59.0149 16.2222 59.0879 15.9377C59.2127 15.4642 59.2684 14.975 59.2533 14.4855C59.2703 14.0111 59.2145 13.537 59.0879 13.0794C59.0022 12.7923 58.8475 12.5303 58.6374 12.3165C58.4311 12.1283 58.1765 12.001 57.9021 11.9489C57.4672 11.8828 57.0271 11.8582 56.5876 11.8754H55.8706Z" fill="white"/>
<path d="M62.2422 11.9398V10.5336H63.7862V11.9398H62.2422ZM62.2422 18.4283V12.7117H63.7862V18.4283H62.2422Z" fill="white"/>
<path d="M64.7695 16.8015L66.2952 16.5717C66.3391 16.8319 66.4763 17.0671 66.6812 17.2334C66.9265 17.4011 67.2209 17.482 67.5175 17.4632C67.8387 17.4941 68.1612 17.42 68.4366 17.2518C68.4982 17.2042 68.5478 17.1429 68.5813 17.0726C68.6148 17.0024 68.6314 16.9253 68.6296 16.8475C68.633 16.7431 68.5969 16.6413 68.5285 16.5625C68.3762 16.4601 68.2039 16.3912 68.023 16.3603C67.2159 16.2315 66.4323 15.9837 65.6978 15.625C65.4831 15.4873 65.3078 15.2966 65.1886 15.0712C65.0694 14.8457 65.0106 14.5933 65.0177 14.3384C65.0147 14.0992 65.0661 13.8623 65.168 13.6458C65.2699 13.4293 65.4196 13.2388 65.6059 13.0885C66.139 12.7068 66.7907 12.5276 67.444 12.583C68.0511 12.5404 68.6576 12.6745 69.1902 12.969C69.583 13.2347 69.8618 13.6381 69.9714 14.0995L68.5469 14.3567C68.4988 14.15 68.374 13.9694 68.1976 13.8513C67.9803 13.7167 67.7268 13.6524 67.4716 13.6674C67.177 13.6457 66.882 13.7029 66.6168 13.8329C66.5629 13.8651 66.5184 13.9109 66.4877 13.9657C66.4571 14.0206 66.4414 14.0825 66.4422 14.1454C66.4431 14.2007 66.4579 14.255 66.4852 14.3032C66.5125 14.3514 66.5514 14.3919 66.5985 14.4211C67.0466 14.6231 67.5194 14.7652 68.0046 14.8439C68.6104 14.9418 69.1875 15.1708 69.6957 15.5148C69.8546 15.6556 69.98 15.8303 70.0627 16.0259C70.1453 16.2215 70.1833 16.4332 70.1736 16.6453C70.173 16.9059 70.1131 17.1629 69.9984 17.397C69.8838 17.631 69.7174 17.836 69.5119 17.9963C68.9533 18.409 68.2653 18.6079 67.5727 18.5569C66.9269 18.5873 66.2869 18.4241 65.7345 18.0882C65.2654 17.7927 64.9218 17.3345 64.7695 16.8015Z" fill="white"/>
<path d="M71.3975 12.7114H72.8131V13.5478C72.9964 13.2575 73.2491 13.0175 73.5485 12.8493C73.8659 12.6723 74.2238 12.5804 74.5872 12.5827C74.9096 12.5785 75.2288 12.6464 75.5215 12.7816C75.8141 12.9168 76.0728 13.1157 76.2786 13.3639C76.7776 13.976 77.0271 14.7539 76.9772 15.5421C77.028 16.3444 76.779 17.137 76.2786 17.7662C76.0723 18.0168 75.8125 18.2179 75.5181 18.3547C75.2238 18.4915 74.9025 18.5605 74.578 18.5566C74.283 18.559 73.9911 18.4963 73.7231 18.3729C73.4159 18.2066 73.1417 17.9853 72.9142 17.7202V20.6061H71.3975V12.7114ZM72.8958 15.4686C72.8578 15.9736 72.9941 16.4763 73.2819 16.8931C73.3894 17.0352 73.5283 17.1507 73.6877 17.2304C73.8472 17.3101 74.0229 17.3519 74.2011 17.3526C74.377 17.3606 74.5522 17.3264 74.7121 17.2529C74.872 17.1793 75.012 17.0685 75.1203 16.9299C75.3918 16.5207 75.5151 16.031 75.4697 15.5421C75.5055 15.0671 75.3791 14.5941 75.1112 14.2003C75.0028 14.061 74.863 13.9493 74.7033 13.8742C74.5435 13.7992 74.3683 13.7629 74.1919 13.7683C74.016 13.7658 73.8417 13.8033 73.6824 13.8782C73.5232 13.953 73.383 14.0632 73.2727 14.2003C72.9918 14.564 72.8573 15.0198 72.8958 15.4778V15.4686Z" fill="white"/>
<path d="M77.832 15.4869C77.8328 14.9799 77.9591 14.481 78.1997 14.0347C78.4319 13.573 78.8011 13.1943 79.2568 12.9503C79.7226 12.6999 80.2449 12.5733 80.7736 12.5826C81.1682 12.5681 81.5616 12.6357 81.9287 12.7813C82.2959 12.9269 82.6287 13.1472 82.9062 13.4282C83.1801 13.708 83.3946 14.0403 83.5368 14.4051C83.6789 14.77 83.7459 15.1598 83.7335 15.5512C83.7452 15.9474 83.6772 16.3419 83.5335 16.7113C83.3898 17.0808 83.1734 17.4176 82.897 17.7018C82.6231 17.983 82.2937 18.2043 81.9298 18.3514C81.5658 18.4986 81.1752 18.5684 80.7827 18.5565C80.2632 18.5557 79.7507 18.4363 79.2844 18.2073C78.8214 17.981 78.4418 17.6143 78.1997 17.1595C77.9391 16.6415 77.8126 16.0664 77.832 15.4869ZM79.3763 15.5696C79.3457 16.0396 79.4898 16.5043 79.7808 16.8747C79.9046 17.0185 80.0586 17.1333 80.2317 17.2111C80.4048 17.289 80.5929 17.3279 80.7827 17.325C80.9713 17.3285 81.1583 17.2897 81.33 17.2118C81.5017 17.1339 81.6539 17.0188 81.7755 16.8747C82.0631 16.4994 82.2037 16.032 82.1708 15.5604C82.2025 15.0946 82.0619 14.6333 81.7755 14.2645C81.6527 14.1218 81.5002 14.0077 81.3288 13.9299C81.1573 13.8521 80.971 13.8126 80.7827 13.8141C80.5932 13.8131 80.4057 13.8528 80.2328 13.9305C80.06 14.0082 79.9058 14.1221 79.7808 14.2645C79.505 14.6375 79.3743 15.0981 79.4131 15.5604L79.3763 15.5696Z" fill="white"/>
<path d="M90.1224 18.4282H88.6059V15.5607C88.6284 15.1571 88.5975 14.7522 88.514 14.3567C88.4508 14.1872 88.3389 14.0402 88.1924 13.934C88.0366 13.8332 87.854 13.7819 87.6685 13.7869C87.4169 13.7861 87.1707 13.8598 86.9608 13.9984C86.7624 14.138 86.6142 14.3378 86.5381 14.5682C86.4367 14.9985 86.3965 15.4409 86.4186 15.8824V18.4742H84.9297V12.7576H86.3267V13.5939C86.5467 13.3016 86.8332 13.0658 87.1624 12.906C87.4916 12.7462 87.8541 12.6669 88.2199 12.6749C88.5361 12.6669 88.8502 12.7298 89.139 12.8587C89.3854 12.952 89.6015 13.1109 89.764 13.3183C89.9119 13.5039 90.0156 13.7207 90.0673 13.9524C90.1315 14.2885 90.1592 14.6305 90.15 14.9725L90.1224 18.4282Z" fill="white"/>
<path d="M91.6572 11.9398V10.5336H93.2012V11.9398H91.6572ZM91.6572 18.4283V12.7117H93.2012V18.4283H91.6572Z" fill="white"/>
<path d="M94.6553 18.4283V10.5336H96.172V13.3826C96.3712 13.135 96.623 12.9348 96.9092 12.7965C97.1954 12.6582 97.5088 12.5852 97.8266 12.5831C98.1524 12.5739 98.4762 12.6366 98.7749 12.7668C99.0736 12.8971 99.3399 13.0917 99.5548 13.3366C100.051 13.9497 100.298 14.7278 100.244 15.5148C100.295 16.3256 100.046 17.1269 99.5456 17.7666C99.3408 18.0164 99.0824 18.2171 98.7897 18.3539C98.497 18.4907 98.1773 18.5601 97.8542 18.557C97.5154 18.5532 97.182 18.4714 96.8798 18.318C96.5539 18.1436 96.2736 17.8948 96.0617 17.5919V18.4283H94.6553ZM96.1628 15.4505C96.1322 15.9056 96.2276 16.3604 96.4386 16.7649C96.5453 16.9478 96.6984 17.0993 96.8824 17.2042C97.0663 17.3091 97.2747 17.3635 97.4865 17.3622C97.6519 17.3622 97.8151 17.3241 97.9634 17.2508C98.1117 17.1774 98.241 17.0709 98.3414 16.9394C98.6212 16.5366 98.7543 16.0499 98.7183 15.5608C98.7608 15.0622 98.6345 14.5637 98.3598 14.1454C98.2519 14.0056 98.1122 13.8936 97.9524 13.8185C97.7925 13.7434 97.6171 13.7074 97.4406 13.7135C97.265 13.7077 97.0906 13.743 96.931 13.8164C96.7714 13.8898 96.6312 13.9992 96.5213 14.1362C96.2483 14.5173 96.1211 14.9837 96.1628 15.4505Z" fill="white"/>
<path d="M101.476 18.4283V10.5336H102.992V18.4283H101.476Z" fill="white"/>
<path d="M107.835 16.6082L109.342 16.8656C109.183 17.375 108.86 17.8175 108.423 18.1247C107.958 18.4304 107.408 18.5816 106.851 18.5567C106.432 18.5892 106.011 18.5173 105.626 18.3473C105.241 18.1773 104.904 17.9144 104.646 17.5824C104.249 17.0052 104.049 16.3155 104.076 15.6157C104.028 14.806 104.295 14.0091 104.82 13.3915C105.057 13.1278 105.348 12.9189 105.673 12.7792C105.998 12.6395 106.35 12.5725 106.704 12.5827C107.082 12.5643 107.458 12.6306 107.807 12.7769C108.155 12.9233 108.466 13.1459 108.717 13.4283C109.269 14.1696 109.522 15.0916 109.425 16.0108H105.629C105.62 16.3932 105.751 16.7657 105.997 17.0586C106.107 17.1789 106.243 17.2739 106.393 17.3374C106.544 17.4008 106.706 17.4311 106.87 17.4262C107.085 17.434 107.297 17.3656 107.467 17.2331C107.652 17.0683 107.781 16.8498 107.835 16.6082ZM107.918 15.0826C107.936 14.7175 107.814 14.3592 107.578 14.0808C107.48 13.9712 107.359 13.884 107.224 13.8254C107.089 13.7667 106.943 13.7378 106.796 13.7408C106.642 13.7366 106.489 13.7665 106.347 13.8285C106.206 13.8905 106.08 13.9829 105.978 14.0992C105.749 14.3738 105.634 14.7257 105.657 15.0826H107.918Z" fill="white"/>
<path d="M113.186 16.8015L114.711 16.5717C114.755 16.8319 114.892 17.0671 115.097 17.2334C115.343 17.4011 115.637 17.482 115.934 17.4632C116.255 17.4941 116.577 17.42 116.853 17.2518C116.914 17.2042 116.964 17.1429 116.997 17.0726C117.031 17.0024 117.047 16.9253 117.046 16.8475C117.049 16.7431 117.013 16.6413 116.945 16.5625C116.792 16.4601 116.62 16.3912 116.439 16.3603C115.632 16.2315 114.848 15.9837 114.114 15.625C113.899 15.4873 113.724 15.2966 113.605 15.0712C113.485 14.8457 113.427 14.5933 113.434 14.3384C113.431 14.0992 113.482 13.8623 113.584 13.6458C113.686 13.4293 113.836 13.2388 114.022 13.0885C114.555 12.7068 115.207 12.5276 115.86 12.583C116.467 12.5404 117.074 12.6745 117.606 12.969C117.999 13.2347 118.278 13.6381 118.387 14.0995L116.963 14.3567C116.915 14.15 116.79 13.9694 116.614 13.8513C116.396 13.7167 116.143 13.6524 115.888 13.6674C115.593 13.6457 115.298 13.7029 115.033 13.8329C114.979 13.8651 114.934 13.9109 114.904 13.9657C114.873 14.0206 114.857 14.0825 114.858 14.1454C114.859 14.2007 114.874 14.255 114.901 14.3032C114.929 14.3514 114.967 14.3919 115.015 14.4211C115.463 14.6231 115.935 14.7652 116.421 14.8439C117.026 14.9418 117.604 15.1708 118.112 15.5148C118.271 15.6556 118.396 15.8303 118.479 16.0259C118.561 16.2215 118.599 16.4332 118.59 16.6453C118.589 16.9059 118.529 17.1629 118.414 17.397C118.3 17.631 118.133 17.836 117.928 17.9963C117.369 18.409 116.681 18.6079 115.989 18.5569C115.343 18.5873 114.703 18.4241 114.151 18.0882C113.681 17.7927 113.338 17.3345 113.186 16.8015Z" fill="white"/>
<path d="M123.619 18.4281V17.5733C123.411 17.8794 123.13 18.1289 122.801 18.2994C122.469 18.4708 122.1 18.5591 121.726 18.5568C121.367 18.5631 121.013 18.4777 120.696 18.3086C120.398 18.1524 120.162 17.8997 120.026 17.5917C119.877 17.1892 119.808 16.7615 119.823 16.3326V12.7115H121.34V15.3401C121.318 15.8348 121.346 16.3305 121.423 16.8197C121.475 16.9924 121.581 17.1437 121.726 17.2517C121.891 17.3631 122.088 17.418 122.286 17.408C122.535 17.4085 122.778 17.335 122.985 17.1966C123.175 17.0665 123.32 16.88 123.399 16.6635C123.505 16.1561 123.545 15.6372 123.518 15.1195V12.7115H125.025V18.4281H123.619Z" fill="white"/>
<path d="M128.04 18.4284H126.533V12.7118H127.939V13.5206C128.1 13.228 128.319 12.9714 128.583 12.7669C128.779 12.6454 129.005 12.5817 129.235 12.5832C129.589 12.5836 129.936 12.6821 130.237 12.868L129.768 14.1915C129.558 14.042 129.309 13.9559 129.051 13.9434C128.859 13.9361 128.67 13.9981 128.518 14.118C128.338 14.2834 128.215 14.5025 128.169 14.7429C128.059 15.3769 128.016 16.0207 128.04 16.6637V18.4284Z" fill="white"/>
</svg>
