<svg width="185" height="67" viewBox="0 0 185 67" fill="none" xmlns="http://www.w3.org/2000/svg">
<path d="M20.6366 65.668H19.3037C18.3983 65.6531 17.4952 65.5732 16.6012 65.429C15.7926 65.2908 15.0089 65.0337 14.2755 64.6661C13.5541 64.2982 12.8962 63.8174 12.3268 63.2417L3.67676 54.5932L9.88159 52.8011V20.6981C9.88159 20.6981 9.88159 19.6871 9.88159 19.3838C9.88957 18.46 9.96949 17.5381 10.1206 16.6266C10.2546 15.8171 10.5119 15.0331 10.8835 14.3015C11.2428 13.5772 11.7213 12.9186 12.2992 12.3531C12.8732 11.7721 13.5375 11.2879 14.2663 10.9193C14.9933 10.5518 15.7709 10.2948 16.5736 10.1565C17.4858 10.0101 18.4075 9.93024 19.3313 9.91753H20.6642H158.182L173.717 5.4325L181.19 12.3714L181.291 12.4726C181.819 13.0203 182.267 13.639 182.624 14.3107C182.99 15.0399 183.241 15.821 183.369 16.6266C183.525 17.5377 183.611 18.4595 183.626 19.3838V20.6889C183.626 21.2496 183.626 21.7734 183.626 22.3065V53.3249C183.626 53.858 183.626 54.3818 183.626 54.9057V56.2843C183.607 57.1836 183.524 58.0805 183.378 58.968C183.248 59.7815 182.991 60.5693 182.615 61.3025C182.247 62.0186 181.769 62.6729 181.199 63.2417C180.628 63.8197 179.967 64.3007 179.241 64.6661C178.507 65.0407 177.719 65.3011 176.906 65.4382C176.013 65.587 175.109 65.6668 174.204 65.6771H20.6918L20.6366 65.668Z" fill="white"/>
<path d="M173.561 5.97497L180.685 12.5831L180.795 12.6842L180.896 12.7853C181.94 13.855 182.625 15.2236 182.854 16.7005C183.001 17.5787 183.084 18.4664 183.102 19.3566V20.68C183.102 21.2314 183.102 21.7553 183.102 22.2792V53.3252C183.102 53.8582 183.102 54.3729 183.102 54.9152V56.2754C183.084 57.1534 183.001 58.0289 182.854 58.8948C182.735 59.6596 182.496 60.4009 182.146 61.0912C181.799 61.7711 181.346 62.3915 180.804 62.9294C180.267 63.4724 179.647 63.9255 178.966 64.2713C178.27 64.6211 177.527 64.8657 176.76 64.9973C175.887 65.1384 175.005 65.2152 174.121 65.227H19.3041C18.4263 65.2156 17.5506 65.1388 16.6843 64.9973C15.9196 64.8669 15.179 64.6223 14.4873 64.2713C13.8066 63.929 13.1858 63.4789 12.6488 62.9386L4.55955 54.8417L9.67049 53.362L10.3415 53.1689V20.7352C10.3415 20.7352 10.3415 19.7242 10.3415 19.4117C10.3538 18.528 10.4306 17.6464 10.5713 16.774C10.6999 16.0102 10.9415 15.2699 11.2884 14.5774C11.9958 13.2176 13.1068 12.1101 14.4689 11.4067C15.1547 11.0571 15.889 10.8123 16.6475 10.6806C17.5237 10.5444 18.4082 10.4676 19.2949 10.4508H20.6186H158.219H158.347L173.561 6.05766M173.809 5.02831L158.09 9.56854H20.6369H19.2949C18.3708 9.58327 17.449 9.66623 16.5372 9.81671C15.6862 9.95743 14.8617 10.227 14.092 10.6163C13.3247 11.0104 12.6237 11.5221 12.0146 12.1328C11.4032 12.7357 10.894 13.4342 10.507 14.2007C10.1377 14.9469 9.87766 15.7423 9.73484 16.5626C9.57983 17.4737 9.49686 18.3957 9.48666 19.3198C9.48666 19.6231 9.48666 20.6432 9.48666 20.6432V52.3969L2.86816 54.3085L12.0605 63.4992C12.66 64.1146 13.3593 64.6242 14.1288 65.0065C14.9008 65.4016 15.7284 65.6774 16.5831 65.8244C17.4957 65.9682 18.4172 66.0481 19.3409 66.0634H174.186C175.11 66.0541 176.032 65.9711 176.944 65.8152C177.805 65.6758 178.639 65.4029 179.416 65.0065C180.944 64.2107 182.192 62.9663 182.992 61.4405C183.384 60.6625 183.654 59.8286 183.792 58.9683C183.942 58.0564 184.028 57.135 184.049 56.2111V54.8325C184.049 54.3086 184.049 53.7848 184.049 53.2425V22.2516C184.049 21.7185 184.049 21.1856 184.049 20.6341V19.3198C184.026 18.396 183.94 17.4748 183.792 16.5626C183.651 15.7147 183.381 14.8933 182.992 14.1271C182.624 13.4075 182.15 12.7476 181.586 12.1695H181.531L181.301 11.9489L173.791 4.98242L173.809 5.02831Z" fill="black"/>
<path d="M11.4361 57.1393H10.094C9.17038 57.1236 8.24893 57.0437 7.33634 56.9003C6.48156 56.7533 5.65401 56.4775 4.88197 56.0824C4.11532 55.6955 3.41677 55.1864 2.81369 54.5751C2.19817 53.9757 1.68846 53.2765 1.30614 52.5072C0.909595 51.7366 0.636647 50.9085 0.497235 50.0532C0.350403 49.1411 0.267452 48.2198 0.249023 47.2961C0.249023 46.9836 0.249023 45.9451 0.249023 45.9451V11.7375C0.249023 11.7375 0.249023 10.7174 0.249023 10.4141C0.263752 9.49018 0.346726 8.56861 0.497235 7.65691C0.638205 6.79908 0.911051 5.96817 1.30614 5.19377C1.69292 4.42949 2.19867 3.73149 2.80449 3.12587C3.41541 2.51721 4.11604 2.00577 4.88197 1.60939C5.65218 1.22146 6.47651 0.951908 7.32714 0.809811C8.23901 0.659364 9.16075 0.576405 10.0848 0.561646H11.4177H163.652H165.003C165.927 0.575866 166.849 0.658828 167.761 0.809811C168.621 0.954979 169.454 1.22758 170.234 1.61859C171.771 2.41036 173.022 3.66389 173.81 5.20297C174.196 5.9729 174.463 6.79733 174.6 7.64771C174.753 8.55925 174.839 9.48078 174.858 10.4049C174.858 10.8185 174.858 11.2688 174.858 11.7191C174.858 12.1694 174.858 12.8036 174.858 13.3367V44.3275C174.858 44.8697 174.858 45.3936 174.858 45.9175C174.858 46.4413 174.858 46.8365 174.858 47.2961C174.841 48.2203 174.755 49.142 174.6 50.0532C174.462 50.9136 174.193 51.7476 173.8 52.5256C173.009 54.0578 171.759 55.3046 170.225 56.0916C169.449 56.4868 168.619 56.7626 167.761 56.9095C166.849 57.057 165.927 57.1369 165.003 57.1485H163.68H11.4361V57.1393Z" fill="black"/>
<path d="M140.983 27.6921H138.565V43.8861H140.983V27.6921Z" fill="white"/>
<path d="M160.305 33.5284L157.538 40.5501H157.456L154.588 33.5284H151.986L156.288 43.3441L153.834 48.8033H156.353L162.99 33.5284H160.305Z" fill="white"/>
<path d="M146.904 33.1789C146.023 33.1277 145.146 33.3355 144.382 33.7764C143.617 34.2173 142.999 34.8722 142.602 35.6604L144.744 36.5795C144.957 36.1897 145.279 35.8702 145.671 35.6597C146.063 35.4493 146.507 35.3569 146.95 35.3938C147.563 35.3349 148.174 35.5214 148.65 35.9125C149.125 36.3036 149.426 36.8674 149.487 37.4801V37.6455C148.711 37.234 147.846 37.0195 146.968 37.0206C144.661 37.0206 142.308 38.2889 142.308 40.6969C142.308 42.8567 144.201 44.2536 146.325 44.2536C146.933 44.2909 147.539 44.1637 148.081 43.8855C148.623 43.6074 149.08 43.1885 149.404 42.6729H149.459V43.9228H151.794V37.7007C151.822 34.7873 149.671 33.1789 146.904 33.1789ZM146.619 42.0571C145.828 42.0571 144.725 41.6619 144.725 40.6785C144.725 39.4285 146.095 38.9506 147.281 38.9506C148.052 38.9295 148.814 39.1169 149.487 39.4928C149.398 40.1941 149.059 40.8398 148.532 41.311C148.005 41.7822 147.326 42.0471 146.619 42.0571Z" fill="white"/>
<path d="M131.93 27.7017H126.139V43.8956H128.556V37.7563H131.93C132.616 37.7978 133.303 37.6985 133.949 37.4646C134.595 37.2307 135.186 36.8671 135.687 36.3962C136.187 35.9253 136.586 35.3571 136.858 34.7264C137.131 34.0957 137.271 33.416 137.271 32.7289C137.271 32.0419 137.131 31.3622 136.858 30.7315C136.586 30.1008 136.187 29.5326 135.687 29.0617C135.186 28.5908 134.595 28.2273 133.949 27.9934C133.303 27.7595 132.616 27.6602 131.93 27.7017ZM131.985 35.5045H128.556V29.9902H131.994C132.726 29.9902 133.427 30.2806 133.944 30.7977C134.461 31.3148 134.752 32.0161 134.752 32.7473C134.752 33.4786 134.461 34.1799 133.944 34.697C133.427 35.2141 132.726 35.5045 131.994 35.5045H131.985Z" fill="white"/>
<path d="M103.157 34.438H103.074C102.706 34.0396 102.258 33.7239 101.758 33.5116C101.259 33.2993 100.721 33.1953 100.178 33.2065C98.7157 33.2065 97.3128 33.7875 96.2785 34.8216C95.2441 35.8558 94.6631 37.2584 94.6631 38.7209C94.6631 40.1834 95.2441 41.586 96.2785 42.6202C97.3128 43.6543 98.7157 44.2353 100.178 44.2353C100.723 44.2497 101.264 44.1453 101.764 43.9295C102.264 43.7136 102.711 43.3914 103.074 42.9854H103.157V43.7758C103.157 45.8896 102.026 47.0109 100.215 47.0109C99.6134 46.994 99.0302 46.799 98.5393 46.4505C98.0484 46.102 97.6719 45.6157 97.4575 45.0533L95.3617 45.9723C95.7558 46.9399 96.4303 47.7675 97.2984 48.3489C98.1666 48.9302 99.1888 49.2389 100.234 49.2351C103.065 49.2351 105.464 47.5624 105.464 43.4909V33.6018H103.175L103.157 34.438ZM100.399 42.0571C99.5653 41.9813 98.7899 41.5965 98.2253 40.9784C97.6608 40.3603 97.3477 39.5534 97.3477 38.7163C97.3477 37.8792 97.6608 37.0723 98.2253 36.4542C98.7899 35.8361 99.5653 35.4513 100.399 35.3755C100.816 35.3962 101.224 35.5006 101.599 35.6823C101.974 35.8641 102.309 36.1196 102.584 36.4334C102.858 36.7473 103.067 37.1132 103.197 37.5094C103.327 37.9055 103.376 38.3238 103.341 38.7393C103.373 39.1534 103.322 39.5698 103.189 39.9634C103.056 40.357 102.845 40.7197 102.569 41.0297C102.292 41.3396 101.956 41.5904 101.58 41.767C101.204 41.9436 100.796 42.0423 100.381 42.0571H100.399Z" fill="white"/>
<path d="M109.535 27.6925H107.118V43.8864H109.535V27.6925Z" fill="white"/>
<path d="M120.604 36.7174C120.274 35.7188 119.644 34.846 118.801 34.2178C117.957 33.5897 116.94 33.2365 115.889 33.2065C115.181 33.2117 114.482 33.3604 113.833 33.6436C113.185 33.9268 112.6 34.3386 112.116 34.8542C111.631 35.3697 111.256 35.9782 111.013 36.6428C110.771 37.3075 110.665 38.0144 110.704 38.7209C110.687 39.4452 110.816 40.1655 111.083 40.8387C111.351 41.512 111.751 42.1243 112.261 42.6392C112.771 43.154 113.379 43.5608 114.05 43.835C114.721 44.1093 115.44 44.2454 116.164 44.2353C117.073 44.2436 117.969 44.0253 118.771 43.6C119.574 43.1747 120.257 42.5559 120.76 41.7998L118.922 40.5407C118.643 41.0076 118.247 41.3939 117.773 41.6614C117.299 41.9289 116.764 42.0685 116.219 42.0663C115.657 42.0881 115.101 41.9402 114.624 41.6419C114.147 41.3436 113.771 40.9087 113.544 40.3937L120.898 37.3515L120.604 36.7174ZM113.094 38.5556C113.068 38.1546 113.122 37.7525 113.253 37.3727C113.384 36.993 113.59 36.6431 113.858 36.3436C114.126 36.0441 114.45 35.801 114.813 35.6285C115.176 35.456 115.57 35.3575 115.971 35.3388C116.389 35.3096 116.806 35.4049 117.169 35.6127C117.532 35.8205 117.826 36.1313 118.012 36.506L113.094 38.5556Z" fill="white"/>
<path d="M61.9848 34.9434V37.2779H67.5737C67.4905 38.3767 67.0406 39.4156 66.296 40.2281C65.7371 40.7988 65.0645 41.2458 64.3218 41.5403C63.5792 41.8347 62.7831 41.9701 61.9848 41.9375C60.3343 41.9375 58.7514 41.282 57.5844 40.1151C56.4173 38.9482 55.7616 37.3656 55.7616 35.7154C55.7616 34.0652 56.4173 32.4826 57.5844 31.3158C58.7514 30.1489 60.3343 29.4933 61.9848 29.4933C63.5538 29.4748 65.0666 30.0759 66.1949 31.1661L67.8403 29.5209C67.0716 28.7561 66.1574 28.153 65.1517 27.7473C64.146 27.3416 63.0692 27.1416 61.9848 27.159C60.861 27.159 59.7481 27.3803 58.7098 27.8103C57.6715 28.2403 56.728 28.8706 55.9333 29.6651C55.1386 30.4597 54.5083 31.4029 54.0782 32.441C53.6481 33.4792 53.4268 34.5918 53.4268 35.7154C53.4268 36.8391 53.6481 37.9518 54.0782 38.9899C54.5083 40.0281 55.1386 40.9713 55.9333 41.7659C56.728 42.5604 57.6715 43.1906 58.7098 43.6206C59.7481 44.0506 60.861 44.272 61.9848 44.272C63.1482 44.2762 64.2982 44.025 65.3539 43.5363C66.4096 43.0477 67.3452 42.3335 68.0947 41.4439C68.8442 40.5543 69.3893 39.5111 69.6916 38.3879C69.9939 37.2648 70.046 36.089 69.8443 34.9434H61.9848Z" fill="white"/>
<path d="M76.3152 33.2063C75.2244 33.2063 74.158 33.5298 73.251 34.1357C72.344 34.7416 71.6371 35.6028 71.2196 36.6104C70.8022 37.618 70.693 38.7268 70.9058 39.7965C71.1186 40.8662 71.6439 41.8488 72.4152 42.62C73.1866 43.3912 74.1693 43.9164 75.2392 44.1292C76.3091 44.342 77.418 44.2328 78.4258 43.8154C79.4337 43.398 80.2951 42.6912 80.9011 41.7844C81.5071 40.8776 81.8306 39.8114 81.8306 38.7207C81.8418 37.9935 81.7068 37.2714 81.4336 36.5973C81.1603 35.9232 80.7545 35.3109 80.2401 34.7966C79.7257 34.2823 79.1132 33.8765 78.439 33.6034C77.7648 33.3302 77.0426 33.1952 76.3152 33.2063ZM76.3152 42.0569C75.6449 42.1049 74.9757 41.9501 74.3948 41.6124C73.8138 41.2748 73.3479 40.77 73.0579 40.1639C72.7678 39.5579 72.6671 38.8786 72.7687 38.2144C72.8702 37.5502 73.1695 36.932 73.6274 36.4403C74.0853 35.9486 74.6808 35.6062 75.3361 35.4575C75.9915 35.3089 76.6764 35.361 77.3017 35.6071C77.927 35.8532 78.4637 36.2818 78.8419 36.8371C79.2201 37.3925 79.4224 38.0488 79.4222 38.7207C79.4419 39.1449 79.3767 39.5687 79.2305 39.9673C79.0842 40.3659 78.8598 40.7313 78.5704 41.042C78.281 41.3528 77.9324 41.6026 77.5452 41.7769C77.1579 41.9512 76.7397 42.0464 76.3152 42.0569Z" fill="white"/>
<path d="M88.366 33.2063C87.2751 33.2063 86.2088 33.5298 85.3018 34.1357C84.3948 34.7416 83.6879 35.6028 83.2704 36.6104C82.853 37.618 82.7438 38.7268 82.9566 39.7965C83.1694 40.8662 83.6947 41.8488 84.466 42.62C85.2374 43.3912 86.2201 43.9164 87.29 44.1292C88.3599 44.342 89.4689 44.2328 90.4767 43.8154C91.4845 43.398 92.3458 42.6912 92.9519 41.7844C93.5579 40.8776 93.8814 39.8114 93.8814 38.7207C93.8926 37.9935 93.7576 37.2714 93.4843 36.5973C93.2111 35.9232 92.8052 35.3109 92.2909 34.7966C91.7765 34.2823 91.164 33.8765 90.4898 33.6034C89.8156 33.3302 89.0934 33.1952 88.366 33.2063ZM88.366 42.0569C87.6957 42.1049 87.0265 41.9501 86.4455 41.6124C85.8646 41.2748 85.3987 40.77 85.1087 40.1639C84.8186 39.5579 84.7179 38.8786 84.8194 38.2144C84.921 37.5502 85.2203 36.932 85.6782 36.4403C86.1361 35.9486 86.7315 35.6062 87.3869 35.4575C88.0422 35.3089 88.7272 35.361 89.3525 35.6071C89.9778 35.8532 90.5145 36.2818 90.8927 36.8371C91.2709 37.3925 91.4731 38.0488 91.473 38.7207C91.4927 39.1449 91.4275 39.5687 91.2812 39.9673C91.135 40.3659 90.9105 40.7313 90.6212 41.042C90.3318 41.3528 89.9832 41.6026 89.596 41.7769C89.2087 41.9512 88.7905 42.0464 88.366 42.0569Z" fill="white"/>
<path d="M13.8076 12.7667C13.5647 13.019 13.3778 13.3197 13.259 13.6491C13.1402 13.9785 13.0922 14.3292 13.1182 14.6784V42.9488C13.0709 43.6159 13.2852 44.2751 13.7157 44.7869L13.8168 44.888C14.1302 45.1659 14.5379 45.3139 14.9566 45.3017C15.4698 45.2844 15.9699 45.1357 16.409 44.8697L35.1798 34.181L41.6144 30.5047C41.955 30.3475 42.2549 30.114 42.4909 29.8224C42.7268 29.5307 42.8924 29.1887 42.9749 28.8228C42.8924 28.4569 42.7268 28.1149 42.4909 27.8233C42.2549 27.5316 41.955 27.2981 41.6144 27.1409L35.1798 23.4647L16.409 12.7759C15.9694 12.5111 15.4696 12.3624 14.9566 12.344C14.5343 12.3365 14.1244 12.4873 13.8076 12.7667Z" fill="#00C1FF"/>
<path d="M13.8168 44.8606L13.7157 44.7686C13.2852 44.2568 13.0709 43.5976 13.1182 42.9305V14.7245C13.0922 14.3753 13.1402 14.0245 13.259 13.6951C13.3778 13.3657 13.5647 13.0652 13.8076 12.8129L29.839 28.8597L13.8168 44.8606Z" fill="url(#paint0_linear_417_628)"/>
<path d="M35.1786 34.1715L29.8379 28.8133L35.1786 23.4644L41.6133 27.1406C41.9539 27.2978 42.2538 27.5313 42.4897 27.823C42.7256 28.1146 42.8912 28.4566 42.9738 28.8225C42.8912 29.1884 42.7256 29.5304 42.4897 29.8221C42.2538 30.1137 41.9539 30.3472 41.6133 30.5044L35.1786 34.1807" fill="url(#paint1_linear_417_628)"/>
<path d="M14.9562 45.2832C14.5375 45.2954 14.1298 45.1475 13.8164 44.8696L29.8386 28.8135L35.1794 34.1625L16.4087 44.8512C15.9695 45.1172 15.4694 45.2659 14.9562 45.2832Z" fill="url(#paint2_linear_417_628)"/>
<path d="M29.8391 28.8136L13.8076 12.7667C14.1244 12.4873 14.5343 12.3365 14.9567 12.344C15.4696 12.3624 15.9694 12.5111 16.4091 12.7759L35.1798 23.4647L29.8391 28.8136Z" fill="url(#paint3_linear_417_628)"/>
<path d="M14.956 45.4759C14.536 45.4857 14.1282 45.3344 13.8161 45.0532L13.7334 44.9705L13.8345 44.8786C14.1498 45.1534 14.5562 45.3008 14.9744 45.2922C15.4875 45.275 15.9876 45.1262 16.4267 44.8602L35.1975 34.1715L35.3262 34.3002L35.1975 34.3645L16.4084 45.0532C16.0012 45.2933 15.5461 45.4408 15.0755 45.4851H14.956" fill="url(#paint4_linear_417_628)"/>
<path d="M13.7161 44.9616C13.2874 44.4489 13.0734 43.7903 13.1187 43.1235V42.9304C13.0715 43.5975 13.2857 44.2567 13.7161 44.7685L13.8172 44.8605L13.7161 44.9616Z" fill="url(#paint5_linear_417_628)"/>
<path d="M35.3084 34.2913L35.1797 34.1627L41.6143 30.4864C41.9549 30.3292 42.2548 30.0957 42.4908 29.8041C42.7267 29.5124 42.8923 29.1703 42.9748 28.8044C42.9724 29.0368 42.919 29.2659 42.8185 29.4755C42.5542 29.9937 42.1327 30.4151 41.6143 30.6794L35.29 34.2821" fill="url(#paint6_linear_417_628)"/>
<path d="M42.9924 28.8132C42.9098 28.4473 42.7442 28.1053 42.5083 27.8137C42.2724 27.522 41.9725 27.2885 41.6319 27.1313L35.1973 23.4551L35.3167 23.3356L41.6411 26.9383C42.0097 27.0978 42.3297 27.3516 42.5686 27.6744C42.8075 27.9972 42.9568 28.3774 43.0016 28.7765" fill="url(#paint7_linear_417_628)"/>
<path d="M13.1186 14.7243V14.5221C13.114 14.4548 13.114 14.3872 13.1186 14.3199C13.1195 13.7369 13.328 13.1731 13.7068 12.7299L13.7987 12.8309C13.5599 13.0819 13.3761 13.3799 13.259 13.7059C13.1419 14.0319 13.094 14.3787 13.1186 14.7243Z" fill="url(#paint8_linear_417_628)"/>
<path d="M35.179 23.4643L16.4082 12.7756C15.9686 12.5107 15.4688 12.3621 14.9558 12.3437C14.5334 12.3362 14.1235 12.487 13.8068 12.7664L13.7148 12.6653L13.8068 12.5734C14.1145 12.2911 14.52 12.1394 14.9374 12.1506C15.4518 12.1681 15.9526 12.3203 16.3898 12.5918L35.2893 23.3449L35.1606 23.4643" fill="url(#paint9_linear_417_628)"/>
<path d="M54.2803 13.5661H57.1942C57.698 13.5481 58.2019 13.5976 58.6926 13.7132C59.1467 13.8485 59.5583 14.0985 59.8876 14.4392C60.2283 14.809 60.4854 15.2478 60.6414 15.7259C60.8218 16.3216 60.9086 16.9417 60.8987 17.564C60.9107 18.1316 60.8268 18.6971 60.6506 19.2368C60.4881 19.765 60.1975 20.2449 59.8048 20.6338C59.4864 20.926 59.1063 21.1427 58.6926 21.2679C58.2312 21.3912 57.7543 21.447 57.2769 21.4333H54.2803V13.5661ZM55.8705 14.8987V20.1282H57.0655C57.3736 20.1346 57.6816 20.11 57.9848 20.0548C58.2247 20.0033 58.4468 19.889 58.6282 19.7238C58.8353 19.5122 58.9814 19.2487 59.0511 18.961C59.1723 18.49 59.225 18.0041 59.2074 17.5181C59.2266 17.0442 59.1739 16.5701 59.0511 16.1119C58.9654 15.8247 58.8107 15.5629 58.6006 15.3491C58.3928 15.156 58.1348 15.0253 57.8561 14.9723C57.4238 14.9105 56.9872 14.8859 56.5508 14.8987H55.8705Z" fill="white"/>
<path d="M62.2412 14.9633V13.5663H63.7485V14.9633H62.2412ZM62.2412 21.461V15.7445H63.7485V21.461H62.2412Z" fill="white"/>
<path d="M64.7695 19.8252L66.286 19.5954C66.3334 19.8591 66.4736 20.0971 66.6812 20.2663C66.9237 20.4327 67.2147 20.5136 67.5083 20.4961C67.8293 20.5245 68.151 20.4505 68.4274 20.2847C68.4919 20.2393 68.5441 20.1785 68.5794 20.1079C68.6146 20.0374 68.6319 19.9592 68.6296 19.8803C68.6321 19.8277 68.6236 19.7752 68.6047 19.7261C68.5857 19.6771 68.5566 19.6326 68.5193 19.5954C68.369 19.4895 68.1958 19.4201 68.0139 19.3932C67.209 19.2669 66.4281 19.0191 65.6978 18.658C65.4838 18.5196 65.3089 18.3287 65.1898 18.1034C65.0707 17.8781 65.0115 17.626 65.0177 17.3713C65.0134 17.1318 65.0641 16.8944 65.1661 16.6777C65.2681 16.461 65.4186 16.2707 65.6059 16.1214C66.139 15.7397 66.7907 15.5604 67.444 15.6158C68.0502 15.572 68.6561 15.7028 69.1902 15.9927C69.5787 16.2627 69.8562 16.6643 69.9715 17.1231L68.5469 17.3897C68.4938 17.1827 68.3703 17.0007 68.1976 16.8749C67.9791 16.7441 67.7257 16.6832 67.4716 16.7004C67.1769 16.6764 66.8813 16.7335 66.6169 16.8657C66.5629 16.898 66.5184 16.9438 66.4877 16.9987C66.4571 17.0535 66.4414 17.1155 66.4422 17.1783C66.4428 17.2314 66.4566 17.2835 66.4822 17.33C66.5079 17.3765 66.5446 17.4159 66.5893 17.4448C67.0397 17.6511 67.5158 17.7964 68.0047 17.8768C68.6104 17.9748 69.1875 18.2037 69.6957 18.5477C69.8532 18.6872 69.9773 18.8605 70.0584 19.0547C70.1396 19.2488 70.1758 19.4588 70.1644 19.6689C70.1636 19.9286 70.1045 20.1847 69.9915 20.4185C69.8786 20.6523 69.7148 20.8578 69.5119 21.0199C68.9518 21.4373 68.2602 21.6395 67.5635 21.5897C66.9161 21.6238 66.2741 21.4568 65.7253 21.1118C65.2548 20.82 64.913 20.36 64.7695 19.8252Z" fill="white"/>
<path d="M71.3975 15.744H72.8039V16.5804C72.9907 16.2898 73.2464 16.0498 73.5484 15.8819C73.8642 15.7008 74.2232 15.6086 74.5872 15.6153C74.9094 15.6118 75.2285 15.68 75.5211 15.8151C75.8136 15.9503 76.0724 16.1489 76.2786 16.3965C76.7779 17.0049 77.0275 17.7802 76.9772 18.5656C77.0234 19.3702 76.775 20.164 76.2786 20.7989C76.0706 21.0474 75.8104 21.2471 75.5165 21.3837C75.2225 21.5203 74.9021 21.5905 74.578 21.5892C74.2818 21.593 73.9889 21.5269 73.7231 21.3963C73.413 21.2342 73.1356 21.0161 72.905 20.753V23.6387H71.3975V15.744ZM72.8958 18.5012C72.8566 19.005 72.9895 19.5073 73.2727 19.9258C73.3807 20.0674 73.5197 20.1825 73.679 20.2621C73.8383 20.3418 74.0138 20.3839 74.1919 20.3853C74.3681 20.3957 74.5441 20.3625 74.7044 20.2887C74.8647 20.215 75.0044 20.1029 75.1111 19.9625C75.384 19.5539 75.5074 19.0637 75.4605 18.5747C75.4964 18.1026 75.3699 17.6325 75.1019 17.2421C74.9945 17.1017 74.855 16.9892 74.695 16.914C74.535 16.8389 74.3593 16.8033 74.1827 16.8102C74.0076 16.8072 73.834 16.8436 73.6749 16.9167C73.5158 16.9899 73.3752 17.098 73.2635 17.2329C72.9956 17.5993 72.8654 18.0484 72.8958 18.5012Z" fill="white"/>
<path d="M77.8231 18.5198C77.8259 18.0091 77.9554 17.507 78.2 17.0586C78.4346 16.604 78.7995 16.2295 79.2479 15.9832C79.7173 15.7337 80.2423 15.6071 80.7739 15.6156C81.1664 15.6011 81.5576 15.668 81.923 15.8119C82.2884 15.9558 82.6201 16.1738 82.8973 16.452C83.4388 17.0336 83.7398 17.7987 83.7398 18.5933C83.7398 19.3879 83.4388 20.1531 82.8973 20.7348C82.6252 21.0158 82.2974 21.2369 81.9349 21.3841C81.5725 21.5312 81.1833 21.6012 80.7922 21.5895C80.2715 21.5899 79.758 21.467 79.2939 21.231C78.8293 21.0115 78.4487 20.647 78.2092 20.1925C77.9429 19.6759 77.8102 19.1009 77.8231 18.5198ZM79.3766 18.6025C79.3478 19.0723 79.4916 19.5365 79.7811 19.9076C79.9039 20.0503 80.0564 20.1644 80.2278 20.2422C80.3993 20.32 80.5856 20.3595 80.7739 20.358C80.9634 20.359 81.1509 20.3193 81.3238 20.2416C81.4966 20.1639 81.6508 20.05 81.7758 19.9076C82.0634 19.5324 82.204 19.0649 82.1711 18.5933C82.2028 18.1275 82.0622 17.6664 81.7758 17.2975C81.652 17.1537 81.498 17.0388 81.3249 16.961C81.1518 16.8831 80.9637 16.8443 80.7739 16.8472C80.5853 16.8438 80.3984 16.8824 80.2266 16.9603C80.0549 17.0382 79.9027 17.1534 79.7811 17.2975C79.4901 17.6679 79.3461 18.1325 79.3766 18.6025Z" fill="white"/>
<path d="M90.1115 21.4608H88.6042V18.5382C88.6246 18.1372 88.5906 17.7353 88.5031 17.3434C88.4483 17.1719 88.3384 17.0234 88.1906 16.9207C88.0348 16.8199 87.8522 16.7686 87.6668 16.7736C87.4144 16.7669 87.1665 16.8409 86.9591 16.9849C86.7562 17.1199 86.6067 17.3214 86.5363 17.5548C86.4349 17.9851 86.3947 18.4275 86.4168 18.8691V21.4608H84.9004V15.7442H86.3065V16.5806C86.5257 16.2895 86.8107 16.0544 87.1381 15.8947C87.4656 15.7349 87.8263 15.6551 88.1906 15.6615C88.5057 15.6556 88.8187 15.715 89.1097 15.8361C89.3543 15.9325 89.5697 16.0909 89.7347 16.2956C89.8765 16.4838 89.9767 16.7 90.0287 16.9299C90.0925 17.266 90.1203 17.608 90.1115 17.95V21.4608Z" fill="white"/>
<path d="M91.6475 14.9633V13.5663H93.1639V14.9633H91.6475ZM91.6475 21.461V15.7445H93.1639V21.461H91.6475Z" fill="white"/>
<path d="M94.6543 21.4606V13.5659H96.1435V16.4058C96.3441 16.1581 96.5977 15.9585 96.8856 15.8217C97.1736 15.6849 97.4885 15.6145 97.8073 15.6154C98.1329 15.6068 98.4565 15.67 98.7552 15.8002C99.0538 15.9304 99.3201 16.1246 99.5354 16.3691C100.027 16.9807 100.27 17.7552 100.216 18.5381C100.269 19.3505 100.024 20.1543 99.5262 20.799C99.3187 21.048 99.0586 21.248 98.7645 21.3847C98.4705 21.5214 98.1499 21.5912 97.8257 21.5893C97.4887 21.5854 97.1576 21.5003 96.8605 21.3412C96.5349 21.1702 96.2545 20.9246 96.0423 20.6244V21.4606H94.6543ZM96.1527 18.4737C96.1183 18.9301 96.2173 19.3868 96.4376 19.788C96.5409 19.9725 96.6917 20.1261 96.8743 20.2327C97.057 20.3394 97.2648 20.3953 97.4764 20.3946C97.6427 20.3943 97.8066 20.355 97.955 20.28C98.1035 20.205 98.2323 20.0962 98.3312 19.9626C98.6019 19.57 98.7285 19.096 98.6897 18.6208C98.7344 18.122 98.608 17.6228 98.3312 17.2054C98.2233 17.0656 98.0836 16.9536 97.9238 16.8785C97.7639 16.8033 97.5885 16.7673 97.412 16.7734C97.2365 16.7677 97.062 16.8029 96.9024 16.8763C96.7429 16.9497 96.6026 17.0592 96.4928 17.1962C96.2216 17.5638 96.0971 18.0193 96.1435 18.4737H96.1527Z" fill="white"/>
<path d="M101.457 21.461V13.5663H102.973V21.461H101.457Z" fill="white"/>
<path d="M107.835 19.6409L109.343 19.8891C109.18 20.3994 108.858 20.844 108.424 21.1574C107.955 21.4565 107.407 21.607 106.852 21.5893C106.432 21.6219 106.011 21.55 105.626 21.38C105.242 21.21 104.905 20.9472 104.646 20.6152C104.25 20.0343 104.05 19.3418 104.076 18.6392C104.03 17.8298 104.297 17.0335 104.821 16.415C105.054 16.1603 105.338 15.9576 105.655 15.8198C105.972 15.6821 106.314 15.6124 106.659 15.6154C107.035 15.5971 107.411 15.6627 107.759 15.8074C108.107 15.952 108.419 16.1721 108.672 16.4518C109.215 17.1971 109.464 18.1168 109.37 19.0343H105.584C105.567 19.4179 105.698 19.7933 105.951 20.0821C106.061 20.2036 106.196 20.3001 106.347 20.3651C106.498 20.4301 106.66 20.4621 106.824 20.4589C107.04 20.4667 107.252 20.3984 107.422 20.2659C107.621 20.1052 107.765 19.8869 107.835 19.6409ZM107.918 18.1062C107.935 17.7441 107.814 17.3891 107.578 17.1135C107.48 17.0039 107.36 16.9167 107.225 16.858C107.09 16.7994 106.944 16.7705 106.797 16.7735C106.641 16.7698 106.487 16.8 106.344 16.8619C106.201 16.9237 106.073 17.0159 105.97 17.1319C105.748 17.4067 105.637 17.7539 105.657 18.1062H107.918Z" fill="white"/>
<path d="M113.186 19.8252L114.702 19.5954C114.749 19.8591 114.89 20.0971 115.097 20.2663C115.34 20.4327 115.631 20.5136 115.924 20.4961C116.245 20.5245 116.567 20.4505 116.843 20.2847C116.908 20.2393 116.96 20.1785 116.995 20.1079C117.031 20.0374 117.048 19.9592 117.046 19.8803C117.048 19.8277 117.04 19.7752 117.021 19.7261C117.002 19.6771 116.973 19.6326 116.935 19.5954C116.785 19.4895 116.612 19.4201 116.43 19.3932C115.625 19.2669 114.844 19.0191 114.114 18.658C113.899 18.521 113.723 18.3303 113.603 18.1047C113.484 17.8791 113.426 17.6263 113.434 17.3713C113.429 17.1318 113.48 16.8944 113.582 16.6777C113.684 16.461 113.835 16.2707 114.022 16.1214C114.555 15.7397 115.207 15.5604 115.86 15.6158C116.466 15.572 117.072 15.7028 117.606 15.9927C117.995 16.2627 118.272 16.6643 118.387 17.1231L116.963 17.3897C116.91 17.1827 116.786 17.0007 116.614 16.8749C116.395 16.7441 116.142 16.6832 115.888 16.7004C115.593 16.6764 115.297 16.7335 115.033 16.8657C114.979 16.898 114.934 16.9438 114.904 16.9987C114.873 17.0535 114.857 17.1155 114.858 17.1783C114.859 17.2314 114.873 17.2835 114.898 17.33C114.924 17.3765 114.961 17.4159 115.005 17.4448C115.456 17.6511 115.932 17.7964 116.421 17.8768C117.026 17.9748 117.604 18.2037 118.112 18.5477C118.269 18.6872 118.393 18.8605 118.474 19.0547C118.556 19.2488 118.592 19.4588 118.58 19.6689C118.58 19.9286 118.521 20.1847 118.408 20.4185C118.295 20.6523 118.131 20.8578 117.928 21.0199C117.368 21.4373 116.676 21.6395 115.98 21.5897C115.332 21.6238 114.69 21.4568 114.141 21.1118C113.671 20.82 113.329 20.36 113.186 19.8252Z" fill="white"/>
<path d="M123.619 21.4609V20.6063C123.41 20.9098 123.129 21.1562 122.801 21.3232C122.469 21.4973 122.1 21.5887 121.725 21.5896C121.362 21.5973 121.004 21.5085 120.687 21.3323C120.394 21.1762 120.161 20.9273 120.025 20.6247C119.871 20.2203 119.802 19.7885 119.823 19.3564V15.7444H121.339V18.4005C121.317 18.8953 121.345 19.3909 121.422 19.8802C121.472 20.0513 121.579 20.2003 121.725 20.3029C121.889 20.4176 122.086 20.4757 122.286 20.4684C122.532 20.4706 122.773 20.3968 122.975 20.257C123.171 20.1303 123.319 19.943 123.398 19.7239C123.498 19.2157 123.535 18.6972 123.508 18.1799V15.772H125.025V21.4885L123.619 21.4609Z" fill="white"/>
<path d="M128.04 21.4606H126.523V15.744H127.93V16.5528C128.093 16.2594 128.315 16.003 128.582 15.7992C128.776 15.6737 129.004 15.6096 129.235 15.6153C129.589 15.6158 129.935 15.7145 130.236 15.9003L129.768 17.2145C129.557 17.065 129.309 16.9789 129.051 16.9663C128.859 16.9636 128.671 17.0251 128.518 17.141C128.34 17.3119 128.218 17.5331 128.169 17.7751C128.058 18.409 128.015 19.053 128.04 19.6961V21.4606Z" fill="white"/>
<defs>
<linearGradient id="paint0_linear_417_628" x1="25.8955" y1="16.7097" x2="12.082" y2="30.5534" gradientUnits="userSpaceOnUse">
<stop stop-color="#00A0FF"/>
<stop offset="0.01" stop-color="#00A1FF"/>
<stop offset="0.26" stop-color="#00BEFF"/>
<stop offset="0.51" stop-color="#00D2FF"/>
<stop offset="0.76" stop-color="#00DFFF"/>
<stop offset="1" stop-color="#00E3FF"/>
</linearGradient>
<linearGradient id="paint1_linear_417_628" x1="43.9849" y1="28.8133" x2="12.685" y2="28.8133" gradientUnits="userSpaceOnUse">
<stop stop-color="#FFE000"/>
<stop offset="0.41" stop-color="#FFBD00"/>
<stop offset="0.78" stop-color="#FFA500"/>
<stop offset="1" stop-color="#FF9C00"/>
</linearGradient>
<linearGradient id="paint2_linear_417_628" x1="31.2267" y1="32.7747" x2="7.81804" y2="56.0497" gradientUnits="userSpaceOnUse">
<stop stop-color="#FF3A44"/>
<stop offset="1" stop-color="#C31162"/>
</linearGradient>
<linearGradient id="paint3_linear_417_628" x1="13.1733" y1="6.87561" x2="23.5955" y2="17.2721" gradientUnits="userSpaceOnUse">
<stop stop-color="#32A071"/>
<stop offset="0.07" stop-color="#2DA771"/>
<stop offset="0.48" stop-color="#15CF74"/>
<stop offset="0.8" stop-color="#06E775"/>
<stop offset="1" stop-color="#00F076"/>
</linearGradient>
<linearGradient id="paint4_linear_417_628" x1="29.4247" y1="34.7046" x2="10.6759" y2="53.4845" gradientUnits="userSpaceOnUse">
<stop stop-color="#CC2E36"/>
<stop offset="1" stop-color="#9C0E4E"/>
</linearGradient>
<linearGradient id="paint5_linear_417_628" x1="29.2209" y1="28.133" x2="17.0521" y2="40.3199" gradientUnits="userSpaceOnUse">
<stop stop-color="#008DE0"/>
<stop offset="0.01" stop-color="#008DE0"/>
<stop offset="0.26" stop-color="#00A7E0"/>
<stop offset="0.51" stop-color="#00B8E0"/>
<stop offset="0.76" stop-color="#00C4E0"/>
<stop offset="1" stop-color="#00C7E0"/>
</linearGradient>
<linearGradient id="paint6_linear_417_628" x1="43.986" y1="31.5525" x2="12.686" y2="31.5525" gradientUnits="userSpaceOnUse">
<stop stop-color="#E0C500"/>
<stop offset="0.41" stop-color="#E0A600"/>
<stop offset="0.78" stop-color="#E09100"/>
<stop offset="1" stop-color="#E08900"/>
</linearGradient>
<linearGradient id="paint7_linear_417_628" x1="43.9851" y1="26.0744" x2="12.6852" y2="26.0744" gradientUnits="userSpaceOnUse">
<stop stop-color="#FFE840"/>
<stop offset="0.41" stop-color="#FFCE40"/>
<stop offset="0.78" stop-color="#FFBC40"/>
<stop offset="1" stop-color="#FFB540"/>
</linearGradient>
<linearGradient id="paint8_linear_417_628" x1="14.102" y1="13.0148" x2="2.3837" y2="24.246" gradientUnits="userSpaceOnUse">
<stop stop-color="#40B8FF"/>
<stop offset="0.01" stop-color="#40B9FF"/>
<stop offset="0.26" stop-color="#40CEFF"/>
<stop offset="0.51" stop-color="#40DDFF"/>
<stop offset="0.76" stop-color="#40E7FF"/>
<stop offset="1" stop-color="#40EAFF"/>
</linearGradient>
<linearGradient id="paint9_linear_417_628" x1="14.9834" y1="8.46513" x2="23.3469" y2="16.8485" gradientUnits="userSpaceOnUse">
<stop stop-color="#65B895"/>
<stop offset="0.07" stop-color="#62BD95"/>
<stop offset="0.48" stop-color="#50DB97"/>
<stop offset="0.8" stop-color="#44ED98"/>
<stop offset="1" stop-color="#40F498"/>
</linearGradient>
</defs>
</svg>
